G75*
%MOIN*%
%OFA0B0*%
%FSLAX24Y24*%
%IPPOS*%
%LPD*%
%AMOC8*
5,1,8,0,0,1.08239X$1,22.5*
%
%ADD10C,0.0000*%
%ADD11C,0.0030*%
%ADD12C,0.0400*%
%ADD13C,0.0060*%
%ADD14R,0.0664X0.0008*%
%ADD15R,0.0680X0.0008*%
%ADD16R,0.0655X0.0008*%
%ADD17R,0.0672X0.0008*%
%ADD18R,0.0025X0.0008*%
%ADD19R,0.0680X0.0008*%
%ADD20R,0.0034X0.0008*%
%ADD21R,0.0025X0.0008*%
%ADD22R,0.0680X0.0008*%
%ADD23R,0.0034X0.0008*%
%ADD24R,0.0672X0.0008*%
%ADD25R,0.0050X0.0008*%
%ADD26R,0.0050X0.0008*%
%ADD27R,0.0042X0.0008*%
%ADD28R,0.0067X0.0008*%
%ADD29R,0.0655X0.0008*%
%ADD30R,0.0076X0.0008*%
%ADD31R,0.0067X0.0008*%
%ADD32R,0.0084X0.0008*%
%ADD33R,0.0076X0.0008*%
%ADD34R,0.0647X0.0008*%
%ADD35R,0.0092X0.0008*%
%ADD36R,0.0008X0.0008*%
%ADD37R,0.0109X0.0008*%
%ADD38R,0.0647X0.0008*%
%ADD39R,0.0126X0.0008*%
%ADD40R,0.0664X0.0008*%
%ADD41R,0.0151X0.0008*%
%ADD42R,0.0151X0.0008*%
%ADD43R,0.0672X0.0008*%
%ADD44R,0.0185X0.0008*%
%ADD45R,0.0185X0.0008*%
%ADD46R,0.0252X0.0008*%
%ADD47R,0.0168X0.0008*%
%ADD48R,0.0160X0.0008*%
%ADD49R,0.0235X0.0008*%
%ADD50R,0.0521X0.0008*%
%ADD51R,0.0521X0.0008*%
%ADD52R,0.0512X0.0008*%
%ADD53R,0.0647X0.0008*%
%ADD54R,0.0647X0.0008*%
%ADD55R,0.0529X0.0008*%
%ADD56R,0.0512X0.0008*%
%ADD57R,0.0260X0.0008*%
%ADD58R,0.0269X0.0008*%
%ADD59R,0.0529X0.0008*%
%ADD60R,0.0529X0.0008*%
%ADD61R,0.0260X0.0008*%
%ADD62R,0.0269X0.0008*%
%ADD63R,0.0529X0.0008*%
%ADD64R,0.0504X0.0008*%
%ADD65R,0.1042X0.0008*%
%ADD66R,0.0260X0.0008*%
%ADD67R,0.1042X0.0008*%
%ADD68R,0.0260X0.0008*%
%ADD69R,0.1025X0.0008*%
%ADD70R,0.1025X0.0008*%
%ADD71R,0.1008X0.0008*%
%ADD72R,0.1008X0.0008*%
%ADD73R,0.1000X0.0008*%
%ADD74R,0.0991X0.0008*%
%ADD75R,0.0983X0.0008*%
%ADD76R,0.0974X0.0008*%
%ADD77R,0.0966X0.0008*%
%ADD78R,0.0958X0.0008*%
%ADD79R,0.0958X0.0008*%
%ADD80R,0.0949X0.0008*%
%ADD81R,0.0941X0.0008*%
%ADD82R,0.0932X0.0008*%
%ADD83R,0.0924X0.0008*%
%ADD84R,0.0924X0.0008*%
%ADD85R,0.0907X0.0008*%
%ADD86R,0.0907X0.0008*%
%ADD87R,0.0890X0.0008*%
%ADD88R,0.0890X0.0008*%
%ADD89R,0.0882X0.0008*%
%ADD90R,0.0874X0.0008*%
%ADD91R,0.0865X0.0008*%
%ADD92R,0.0857X0.0008*%
%ADD93R,0.0848X0.0008*%
%ADD94R,0.0840X0.0008*%
%ADD95R,0.0832X0.0008*%
%ADD96R,0.0823X0.0008*%
%ADD97R,0.0815X0.0008*%
%ADD98R,0.0815X0.0008*%
%ADD99R,0.0806X0.0008*%
%ADD100R,0.0798X0.0008*%
%ADD101R,0.0790X0.0008*%
%ADD102R,0.0017X0.0008*%
%ADD103R,0.0781X0.0008*%
%ADD104R,0.0773X0.0008*%
%ADD105R,0.0764X0.0008*%
%ADD106R,0.0042X0.0008*%
%ADD107R,0.0756X0.0008*%
%ADD108R,0.0059X0.0008*%
%ADD109R,0.0748X0.0008*%
%ADD110R,0.0739X0.0008*%
%ADD111R,0.0084X0.0008*%
%ADD112R,0.0059X0.0008*%
%ADD113R,0.0731X0.0008*%
%ADD114R,0.0722X0.0008*%
%ADD115R,0.0076X0.0008*%
%ADD116R,0.0714X0.0008*%
%ADD117R,0.0076X0.0008*%
%ADD118R,0.0706X0.0008*%
%ADD119R,0.0697X0.0008*%
%ADD120R,0.0689X0.0008*%
%ADD121R,0.0101X0.0008*%
%ADD122R,0.0092X0.0008*%
%ADD123R,0.0109X0.0008*%
%ADD124R,0.0084X0.0008*%
%ADD125R,0.0101X0.0008*%
%ADD126R,0.0252X0.0008*%
%ADD127R,0.0109X0.0008*%
%ADD128R,0.0118X0.0008*%
%ADD129R,0.0134X0.0008*%
%ADD130R,0.0118X0.0008*%
%ADD131R,0.0042X0.0008*%
%ADD132R,0.0386X0.0008*%
%ADD133R,0.0386X0.0008*%
%ADD134R,0.0638X0.0008*%
%ADD135R,0.0395X0.0008*%
%ADD136R,0.0630X0.0008*%
%ADD137R,0.0395X0.0008*%
%ADD138R,0.0395X0.0008*%
%ADD139R,0.0622X0.0008*%
%ADD140R,0.0395X0.0008*%
%ADD141R,0.0613X0.0008*%
%ADD142R,0.0605X0.0008*%
%ADD143R,0.0403X0.0008*%
%ADD144R,0.1411X0.0008*%
%ADD145R,0.1403X0.0008*%
%ADD146R,0.1394X0.0008*%
%ADD147R,0.1378X0.0008*%
%ADD148R,0.1361X0.0008*%
%ADD149R,0.1327X0.0008*%
%ADD150R,0.1302X0.0008*%
%ADD151R,0.1277X0.0008*%
%ADD152R,0.1218X0.0008*%
%ADD153R,0.0252X0.0008*%
%ADD154R,0.0974X0.0008*%
%ADD155R,0.0916X0.0008*%
%ADD156R,0.0244X0.0008*%
%ADD157R,0.0210X0.0008*%
%ADD158R,0.0202X0.0008*%
%ADD159R,0.0193X0.0008*%
%ADD160R,0.0176X0.0008*%
%ADD161R,0.0832X0.0008*%
%ADD162R,0.0840X0.0008*%
%ADD163R,0.0143X0.0008*%
%ADD164R,0.0848X0.0008*%
%ADD165R,0.0143X0.0008*%
%ADD166R,0.0126X0.0008*%
%ADD167R,0.0857X0.0008*%
%ADD168R,0.0008X0.0008*%
%ADD169R,0.0865X0.0008*%
%ADD170R,0.0017X0.0008*%
%ADD171R,0.0848X0.0008*%
%ADD172R,0.0042X0.0008*%
%ADD173R,0.0008X0.0008*%
%ADD174R,0.0084X0.0008*%
%ADD175R,0.0806X0.0008*%
%ADD176R,0.0134X0.0008*%
%ADD177R,0.0151X0.0008*%
%ADD178R,0.0168X0.0008*%
%ADD179R,0.0722X0.0008*%
%ADD180R,0.0185X0.0008*%
%ADD181R,0.0202X0.0008*%
%ADD182R,0.0706X0.0008*%
%ADD183R,0.0218X0.0008*%
%ADD184R,0.0210X0.0008*%
%ADD185R,0.0227X0.0008*%
%ADD186R,0.0689X0.0008*%
%ADD187R,0.0244X0.0008*%
%ADD188R,0.0277X0.0008*%
%ADD189R,0.0008X0.0008*%
%ADD190R,0.0277X0.0008*%
%ADD191R,0.0286X0.0008*%
%ADD192R,0.0302X0.0008*%
%ADD193R,0.0756X0.0008*%
%ADD194R,0.1428X0.0008*%
%ADD195R,0.1420X0.0008*%
%ADD196R,0.0050X0.0008*%
%ADD197R,0.0050X0.0008*%
%ADD198R,0.1394X0.0008*%
%ADD199R,0.1378X0.0008*%
%ADD200R,0.1361X0.0008*%
%ADD201R,0.0118X0.0008*%
%ADD202R,0.0118X0.0008*%
%ADD203R,0.0143X0.0008*%
%ADD204R,0.1369X0.0008*%
%ADD205R,0.0160X0.0008*%
%ADD206R,0.0176X0.0008*%
%ADD207R,0.0193X0.0008*%
%ADD208R,0.0218X0.0008*%
%ADD209R,0.0218X0.0008*%
%ADD210R,0.1411X0.0008*%
%ADD211R,0.0235X0.0008*%
%ADD212R,0.1428X0.0008*%
%ADD213R,0.1445X0.0008*%
%ADD214R,0.1478X0.0008*%
%ADD215R,0.0319X0.0008*%
%ADD216R,0.1529X0.0008*%
%ADD217R,0.0328X0.0008*%
%ADD218R,0.2209X0.0008*%
%ADD219R,0.2209X0.0008*%
%ADD220R,0.2058X0.0008*%
%ADD221R,0.1999X0.0008*%
%ADD222R,0.1966X0.0008*%
%ADD223R,0.1932X0.0008*%
%ADD224R,0.1907X0.0008*%
%ADD225R,0.1882X0.0008*%
%ADD226R,0.1865X0.0008*%
%ADD227R,0.1848X0.0008*%
%ADD228R,0.1831X0.0008*%
%ADD229R,0.1814X0.0008*%
%ADD230R,0.1798X0.0008*%
%ADD231R,0.0479X0.0008*%
%ADD232R,0.0588X0.0008*%
%ADD233R,0.0428X0.0008*%
%ADD234R,0.0580X0.0008*%
%ADD235R,0.0563X0.0008*%
%ADD236R,0.0412X0.0008*%
%ADD237R,0.0546X0.0008*%
%ADD238R,0.0538X0.0008*%
%ADD239R,0.0378X0.0008*%
%ADD240R,0.0361X0.0008*%
%ADD241R,0.0361X0.0008*%
%ADD242R,0.0353X0.0008*%
%ADD243R,0.0353X0.0008*%
%ADD244R,0.0344X0.0008*%
%ADD245R,0.0344X0.0008*%
%ADD246R,0.0353X0.0008*%
%ADD247R,0.0353X0.0008*%
%ADD248R,0.0538X0.0008*%
%ADD249R,0.0546X0.0008*%
%ADD250R,0.0361X0.0008*%
%ADD251R,0.0454X0.0008*%
%ADD252R,0.0454X0.0008*%
%ADD253R,0.0554X0.0008*%
%ADD254R,0.0571X0.0008*%
%ADD255R,0.0445X0.0008*%
%ADD256R,0.0445X0.0008*%
%ADD257R,0.0437X0.0008*%
%ADD258R,0.0403X0.0008*%
%ADD259R,0.0420X0.0008*%
%ADD260R,0.0412X0.0008*%
%ADD261R,0.0437X0.0008*%
%ADD262R,0.0428X0.0008*%
%ADD263R,0.0319X0.0008*%
%ADD264R,0.0731X0.0008*%
%ADD265R,0.0294X0.0008*%
%ADD266R,0.0286X0.0008*%
%ADD267R,0.0739X0.0008*%
%ADD268R,0.0739X0.0008*%
%ADD269R,0.0748X0.0008*%
%ADD270R,0.0748X0.0008*%
%ADD271R,0.0764X0.0008*%
%ADD272R,0.0773X0.0008*%
%ADD273R,0.0790X0.0008*%
%ADD274R,0.0781X0.0008*%
%ADD275R,0.0798X0.0008*%
%ADD276R,0.0815X0.0008*%
%ADD277R,0.0504X0.0008*%
%ADD278R,0.0487X0.0008*%
%ADD279R,0.0487X0.0008*%
%ADD280R,0.0470X0.0008*%
%ADD281R,0.0470X0.0008*%
%ADD282R,0.0420X0.0008*%
%ADD283R,0.0370X0.0008*%
%ADD284R,0.0370X0.0008*%
%ADD285R,0.0336X0.0008*%
%ADD286R,0.0336X0.0008*%
%ADD287R,0.0319X0.0008*%
%ADD288R,0.0319X0.0008*%
%ADD289R,0.0302X0.0008*%
%ADD290R,0.0286X0.0008*%
%ADD291R,0.0252X0.0008*%
%ADD292R,0.0185X0.0008*%
%ADD293C,0.0080*%
%ADD294R,0.0200X0.0200*%
%ADD295R,0.1000X0.0200*%
%ADD296R,0.0300X0.0750*%
%ADD297R,0.0240X0.0340*%
%ADD298C,0.0100*%
%ADD299C,0.0050*%
%ADD300C,0.0020*%
D10*
X000180Y000180D02*
X000180Y032176D01*
X033550Y032176D01*
X033550Y000180D01*
X021880Y000180D01*
X021880Y006180D01*
X012480Y006180D01*
X012480Y000180D01*
X000180Y000180D01*
X001575Y001740D02*
X001577Y001790D01*
X001583Y001839D01*
X001593Y001888D01*
X001606Y001935D01*
X001624Y001982D01*
X001645Y002027D01*
X001669Y002070D01*
X001697Y002111D01*
X001728Y002150D01*
X001762Y002186D01*
X001799Y002220D01*
X001839Y002250D01*
X001880Y002277D01*
X001924Y002301D01*
X001969Y002321D01*
X002016Y002337D01*
X002064Y002350D01*
X002113Y002359D01*
X002163Y002364D01*
X002212Y002365D01*
X002262Y002362D01*
X002311Y002355D01*
X002360Y002344D01*
X002407Y002330D01*
X002453Y002311D01*
X002498Y002289D01*
X002541Y002264D01*
X002581Y002235D01*
X002619Y002203D01*
X002655Y002169D01*
X002688Y002131D01*
X002717Y002091D01*
X002743Y002049D01*
X002766Y002005D01*
X002785Y001959D01*
X002801Y001912D01*
X002813Y001863D01*
X002821Y001814D01*
X002825Y001765D01*
X002825Y001715D01*
X002821Y001666D01*
X002813Y001617D01*
X002801Y001568D01*
X002785Y001521D01*
X002766Y001475D01*
X002743Y001431D01*
X002717Y001389D01*
X002688Y001349D01*
X002655Y001311D01*
X002619Y001277D01*
X002581Y001245D01*
X002541Y001216D01*
X002498Y001191D01*
X002453Y001169D01*
X002407Y001150D01*
X002360Y001136D01*
X002311Y001125D01*
X002262Y001118D01*
X002212Y001115D01*
X002163Y001116D01*
X002113Y001121D01*
X002064Y001130D01*
X002016Y001143D01*
X001969Y001159D01*
X001924Y001179D01*
X001880Y001203D01*
X001839Y001230D01*
X001799Y001260D01*
X001762Y001294D01*
X001728Y001330D01*
X001697Y001369D01*
X001669Y001410D01*
X001645Y001453D01*
X001624Y001498D01*
X001606Y001545D01*
X001593Y001592D01*
X001583Y001641D01*
X001577Y001690D01*
X001575Y001740D01*
X010900Y008305D02*
X010902Y008338D01*
X010908Y008371D01*
X010918Y008402D01*
X010931Y008433D01*
X010948Y008461D01*
X010968Y008488D01*
X010991Y008512D01*
X011017Y008532D01*
X011045Y008550D01*
X011075Y008564D01*
X011106Y008575D01*
X011139Y008582D01*
X011172Y008585D01*
X011205Y008584D01*
X011238Y008579D01*
X011270Y008570D01*
X011300Y008558D01*
X011329Y008542D01*
X011356Y008522D01*
X011381Y008500D01*
X011403Y008475D01*
X011421Y008447D01*
X011436Y008418D01*
X011448Y008387D01*
X011456Y008355D01*
X011460Y008322D01*
X011460Y008288D01*
X011456Y008255D01*
X011448Y008223D01*
X011436Y008192D01*
X011421Y008163D01*
X011403Y008135D01*
X011381Y008110D01*
X011356Y008088D01*
X011329Y008068D01*
X011300Y008052D01*
X011270Y008040D01*
X011238Y008031D01*
X011205Y008026D01*
X011172Y008025D01*
X011139Y008028D01*
X011106Y008035D01*
X011075Y008046D01*
X011045Y008060D01*
X011017Y008078D01*
X010991Y008098D01*
X010968Y008122D01*
X010948Y008149D01*
X010931Y008177D01*
X010918Y008208D01*
X010908Y008239D01*
X010902Y008272D01*
X010900Y008305D01*
X010900Y014055D02*
X010902Y014088D01*
X010908Y014121D01*
X010918Y014152D01*
X010931Y014183D01*
X010948Y014211D01*
X010968Y014238D01*
X010991Y014262D01*
X011017Y014282D01*
X011045Y014300D01*
X011075Y014314D01*
X011106Y014325D01*
X011139Y014332D01*
X011172Y014335D01*
X011205Y014334D01*
X011238Y014329D01*
X011270Y014320D01*
X011300Y014308D01*
X011329Y014292D01*
X011356Y014272D01*
X011381Y014250D01*
X011403Y014225D01*
X011421Y014197D01*
X011436Y014168D01*
X011448Y014137D01*
X011456Y014105D01*
X011460Y014072D01*
X011460Y014038D01*
X011456Y014005D01*
X011448Y013973D01*
X011436Y013942D01*
X011421Y013913D01*
X011403Y013885D01*
X011381Y013860D01*
X011356Y013838D01*
X011329Y013818D01*
X011300Y013802D01*
X011270Y013790D01*
X011238Y013781D01*
X011205Y013776D01*
X011172Y013775D01*
X011139Y013778D01*
X011106Y013785D01*
X011075Y013796D01*
X011045Y013810D01*
X011017Y013828D01*
X010991Y013848D01*
X010968Y013872D01*
X010948Y013899D01*
X010931Y013927D01*
X010918Y013958D01*
X010908Y013989D01*
X010902Y014022D01*
X010900Y014055D01*
X022900Y014055D02*
X022902Y014088D01*
X022908Y014121D01*
X022918Y014152D01*
X022931Y014183D01*
X022948Y014211D01*
X022968Y014238D01*
X022991Y014262D01*
X023017Y014282D01*
X023045Y014300D01*
X023075Y014314D01*
X023106Y014325D01*
X023139Y014332D01*
X023172Y014335D01*
X023205Y014334D01*
X023238Y014329D01*
X023270Y014320D01*
X023300Y014308D01*
X023329Y014292D01*
X023356Y014272D01*
X023381Y014250D01*
X023403Y014225D01*
X023421Y014197D01*
X023436Y014168D01*
X023448Y014137D01*
X023456Y014105D01*
X023460Y014072D01*
X023460Y014038D01*
X023456Y014005D01*
X023448Y013973D01*
X023436Y013942D01*
X023421Y013913D01*
X023403Y013885D01*
X023381Y013860D01*
X023356Y013838D01*
X023329Y013818D01*
X023300Y013802D01*
X023270Y013790D01*
X023238Y013781D01*
X023205Y013776D01*
X023172Y013775D01*
X023139Y013778D01*
X023106Y013785D01*
X023075Y013796D01*
X023045Y013810D01*
X023017Y013828D01*
X022991Y013848D01*
X022968Y013872D01*
X022948Y013899D01*
X022931Y013927D01*
X022918Y013958D01*
X022908Y013989D01*
X022902Y014022D01*
X022900Y014055D01*
X022900Y008305D02*
X022902Y008338D01*
X022908Y008371D01*
X022918Y008402D01*
X022931Y008433D01*
X022948Y008461D01*
X022968Y008488D01*
X022991Y008512D01*
X023017Y008532D01*
X023045Y008550D01*
X023075Y008564D01*
X023106Y008575D01*
X023139Y008582D01*
X023172Y008585D01*
X023205Y008584D01*
X023238Y008579D01*
X023270Y008570D01*
X023300Y008558D01*
X023329Y008542D01*
X023356Y008522D01*
X023381Y008500D01*
X023403Y008475D01*
X023421Y008447D01*
X023436Y008418D01*
X023448Y008387D01*
X023456Y008355D01*
X023460Y008322D01*
X023460Y008288D01*
X023456Y008255D01*
X023448Y008223D01*
X023436Y008192D01*
X023421Y008163D01*
X023403Y008135D01*
X023381Y008110D01*
X023356Y008088D01*
X023329Y008068D01*
X023300Y008052D01*
X023270Y008040D01*
X023238Y008031D01*
X023205Y008026D01*
X023172Y008025D01*
X023139Y008028D01*
X023106Y008035D01*
X023075Y008046D01*
X023045Y008060D01*
X023017Y008078D01*
X022991Y008098D01*
X022968Y008122D01*
X022948Y008149D01*
X022931Y008177D01*
X022918Y008208D01*
X022908Y008239D01*
X022902Y008272D01*
X022900Y008305D01*
X030575Y001740D02*
X030577Y001790D01*
X030583Y001839D01*
X030593Y001888D01*
X030606Y001935D01*
X030624Y001982D01*
X030645Y002027D01*
X030669Y002070D01*
X030697Y002111D01*
X030728Y002150D01*
X030762Y002186D01*
X030799Y002220D01*
X030839Y002250D01*
X030880Y002277D01*
X030924Y002301D01*
X030969Y002321D01*
X031016Y002337D01*
X031064Y002350D01*
X031113Y002359D01*
X031163Y002364D01*
X031212Y002365D01*
X031262Y002362D01*
X031311Y002355D01*
X031360Y002344D01*
X031407Y002330D01*
X031453Y002311D01*
X031498Y002289D01*
X031541Y002264D01*
X031581Y002235D01*
X031619Y002203D01*
X031655Y002169D01*
X031688Y002131D01*
X031717Y002091D01*
X031743Y002049D01*
X031766Y002005D01*
X031785Y001959D01*
X031801Y001912D01*
X031813Y001863D01*
X031821Y001814D01*
X031825Y001765D01*
X031825Y001715D01*
X031821Y001666D01*
X031813Y001617D01*
X031801Y001568D01*
X031785Y001521D01*
X031766Y001475D01*
X031743Y001431D01*
X031717Y001389D01*
X031688Y001349D01*
X031655Y001311D01*
X031619Y001277D01*
X031581Y001245D01*
X031541Y001216D01*
X031498Y001191D01*
X031453Y001169D01*
X031407Y001150D01*
X031360Y001136D01*
X031311Y001125D01*
X031262Y001118D01*
X031212Y001115D01*
X031163Y001116D01*
X031113Y001121D01*
X031064Y001130D01*
X031016Y001143D01*
X030969Y001159D01*
X030924Y001179D01*
X030880Y001203D01*
X030839Y001230D01*
X030799Y001260D01*
X030762Y001294D01*
X030728Y001330D01*
X030697Y001369D01*
X030669Y001410D01*
X030645Y001453D01*
X030624Y001498D01*
X030606Y001545D01*
X030593Y001592D01*
X030583Y001641D01*
X030577Y001690D01*
X030575Y001740D01*
X024705Y030640D02*
X024707Y030690D01*
X024713Y030739D01*
X024723Y030788D01*
X024736Y030835D01*
X024754Y030882D01*
X024775Y030927D01*
X024799Y030970D01*
X024827Y031011D01*
X024858Y031050D01*
X024892Y031086D01*
X024929Y031120D01*
X024969Y031150D01*
X025010Y031177D01*
X025054Y031201D01*
X025099Y031221D01*
X025146Y031237D01*
X025194Y031250D01*
X025243Y031259D01*
X025293Y031264D01*
X025342Y031265D01*
X025392Y031262D01*
X025441Y031255D01*
X025490Y031244D01*
X025537Y031230D01*
X025583Y031211D01*
X025628Y031189D01*
X025671Y031164D01*
X025711Y031135D01*
X025749Y031103D01*
X025785Y031069D01*
X025818Y031031D01*
X025847Y030991D01*
X025873Y030949D01*
X025896Y030905D01*
X025915Y030859D01*
X025931Y030812D01*
X025943Y030763D01*
X025951Y030714D01*
X025955Y030665D01*
X025955Y030615D01*
X025951Y030566D01*
X025943Y030517D01*
X025931Y030468D01*
X025915Y030421D01*
X025896Y030375D01*
X025873Y030331D01*
X025847Y030289D01*
X025818Y030249D01*
X025785Y030211D01*
X025749Y030177D01*
X025711Y030145D01*
X025671Y030116D01*
X025628Y030091D01*
X025583Y030069D01*
X025537Y030050D01*
X025490Y030036D01*
X025441Y030025D01*
X025392Y030018D01*
X025342Y030015D01*
X025293Y030016D01*
X025243Y030021D01*
X025194Y030030D01*
X025146Y030043D01*
X025099Y030059D01*
X025054Y030079D01*
X025010Y030103D01*
X024969Y030130D01*
X024929Y030160D01*
X024892Y030194D01*
X024858Y030230D01*
X024827Y030269D01*
X024799Y030310D01*
X024775Y030353D01*
X024754Y030398D01*
X024736Y030445D01*
X024723Y030492D01*
X024713Y030541D01*
X024707Y030590D01*
X024705Y030640D01*
X007447Y030640D02*
X007449Y030690D01*
X007455Y030739D01*
X007465Y030788D01*
X007478Y030835D01*
X007496Y030882D01*
X007517Y030927D01*
X007541Y030970D01*
X007569Y031011D01*
X007600Y031050D01*
X007634Y031086D01*
X007671Y031120D01*
X007711Y031150D01*
X007752Y031177D01*
X007796Y031201D01*
X007841Y031221D01*
X007888Y031237D01*
X007936Y031250D01*
X007985Y031259D01*
X008035Y031264D01*
X008084Y031265D01*
X008134Y031262D01*
X008183Y031255D01*
X008232Y031244D01*
X008279Y031230D01*
X008325Y031211D01*
X008370Y031189D01*
X008413Y031164D01*
X008453Y031135D01*
X008491Y031103D01*
X008527Y031069D01*
X008560Y031031D01*
X008589Y030991D01*
X008615Y030949D01*
X008638Y030905D01*
X008657Y030859D01*
X008673Y030812D01*
X008685Y030763D01*
X008693Y030714D01*
X008697Y030665D01*
X008697Y030615D01*
X008693Y030566D01*
X008685Y030517D01*
X008673Y030468D01*
X008657Y030421D01*
X008638Y030375D01*
X008615Y030331D01*
X008589Y030289D01*
X008560Y030249D01*
X008527Y030211D01*
X008491Y030177D01*
X008453Y030145D01*
X008413Y030116D01*
X008370Y030091D01*
X008325Y030069D01*
X008279Y030050D01*
X008232Y030036D01*
X008183Y030025D01*
X008134Y030018D01*
X008084Y030015D01*
X008035Y030016D01*
X007985Y030021D01*
X007936Y030030D01*
X007888Y030043D01*
X007841Y030059D01*
X007796Y030079D01*
X007752Y030103D01*
X007711Y030130D01*
X007671Y030160D01*
X007634Y030194D01*
X007600Y030230D01*
X007569Y030269D01*
X007541Y030310D01*
X007517Y030353D01*
X007496Y030398D01*
X007478Y030445D01*
X007465Y030492D01*
X007455Y030541D01*
X007449Y030590D01*
X007447Y030640D01*
D11*
X011082Y024251D02*
X011082Y024004D01*
X011452Y024004D01*
X011452Y024251D01*
X011267Y024127D02*
X011267Y024004D01*
X011082Y023882D02*
X011082Y023635D01*
X011452Y023635D01*
X011452Y023882D01*
X011267Y023759D02*
X011267Y023635D01*
X011206Y023514D02*
X011144Y023514D01*
X011082Y023452D01*
X011082Y023267D01*
X011452Y023267D01*
X011452Y023452D01*
X011391Y023514D01*
X011329Y023514D01*
X011267Y023452D01*
X011267Y023267D01*
X011267Y023452D02*
X011206Y023514D01*
X011082Y023146D02*
X011452Y022899D01*
X011452Y023146D02*
X011082Y022899D01*
X024228Y014667D02*
X024352Y014790D01*
X024352Y014420D01*
X024475Y014420D02*
X024228Y014420D01*
X024597Y014482D02*
X024597Y014729D01*
X024658Y014790D01*
X024782Y014790D01*
X024844Y014729D01*
X024597Y014482D01*
X024658Y014420D01*
X024782Y014420D01*
X024844Y014482D01*
X024844Y014729D01*
X024965Y014729D02*
X025027Y014790D01*
X025150Y014790D01*
X025212Y014729D01*
X024965Y014482D01*
X025027Y014420D01*
X025150Y014420D01*
X025212Y014482D01*
X025212Y014729D01*
X025333Y014667D02*
X025519Y014667D01*
X025580Y014605D01*
X025580Y014420D01*
X025702Y014420D02*
X025702Y014790D01*
X025949Y014790D01*
X025825Y014605D02*
X025702Y014605D01*
X025333Y014667D02*
X025333Y014420D01*
X024965Y014482D02*
X024965Y014729D01*
X025027Y015920D02*
X024965Y015982D01*
X025212Y016229D01*
X025212Y015982D01*
X025150Y015920D01*
X025027Y015920D01*
X024965Y015982D02*
X024965Y016229D01*
X025027Y016290D01*
X025150Y016290D01*
X025212Y016229D01*
X025333Y016167D02*
X025333Y015982D01*
X025395Y015920D01*
X025580Y015920D01*
X025580Y016167D01*
X025702Y016105D02*
X025825Y016105D01*
X025702Y015920D02*
X025702Y016290D01*
X025949Y016290D01*
X024844Y015920D02*
X024597Y015920D01*
X024720Y015920D02*
X024720Y016290D01*
X024597Y016167D01*
X031945Y012440D02*
X032192Y012440D01*
X032313Y012440D02*
X032313Y012070D01*
X032560Y012070D01*
X032682Y012132D02*
X032743Y012070D01*
X032867Y012070D01*
X032929Y012132D01*
X032929Y012193D01*
X032867Y012255D01*
X032743Y012255D01*
X032682Y012317D01*
X032682Y012379D01*
X032743Y012440D01*
X032867Y012440D01*
X032929Y012379D01*
X033050Y012440D02*
X033297Y012440D01*
X033173Y012440D02*
X033173Y012070D01*
X032560Y012440D02*
X032313Y012440D01*
X032313Y012255D02*
X032437Y012255D01*
X032068Y012070D02*
X032068Y012440D01*
X032195Y013070D02*
X032195Y013440D01*
X032380Y013440D01*
X032442Y013379D01*
X032442Y013255D01*
X032380Y013193D01*
X032195Y013193D01*
X032318Y013193D02*
X032442Y013070D01*
X032563Y013132D02*
X032625Y013070D01*
X032748Y013070D01*
X032810Y013132D01*
X032810Y013193D01*
X032748Y013255D01*
X032625Y013255D01*
X032563Y013317D01*
X032563Y013379D01*
X032625Y013440D01*
X032748Y013440D01*
X032810Y013379D01*
X032932Y013440D02*
X033179Y013440D01*
X033055Y013440D02*
X033055Y013070D01*
X032563Y013945D02*
X032810Y014130D01*
X032563Y014315D01*
X032442Y014130D02*
X032195Y014130D01*
X032442Y014995D02*
X032195Y015180D01*
X032442Y015365D01*
X032563Y015180D02*
X032810Y015180D01*
X032809Y016070D02*
X032747Y016132D01*
X032809Y016070D02*
X032933Y016070D01*
X032994Y016132D01*
X032994Y016193D01*
X032933Y016255D01*
X032871Y016255D01*
X032933Y016255D02*
X032994Y016317D01*
X032994Y016379D01*
X032933Y016440D01*
X032809Y016440D01*
X032747Y016379D01*
X032625Y016132D02*
X032625Y016070D01*
X032563Y016070D01*
X032563Y016132D01*
X032625Y016132D01*
X032442Y016132D02*
X032442Y016193D01*
X032380Y016255D01*
X032318Y016255D01*
X032380Y016255D02*
X032442Y016317D01*
X032442Y016379D01*
X032380Y016440D01*
X032257Y016440D01*
X032195Y016379D01*
X032195Y016132D02*
X032257Y016070D01*
X032380Y016070D01*
X032442Y016132D01*
X033116Y016193D02*
X033239Y016070D01*
X033363Y016193D01*
X033363Y016440D01*
X033116Y016440D02*
X033116Y016193D01*
X033117Y017070D02*
X033179Y017132D01*
X033179Y017379D01*
X033117Y017440D01*
X032932Y017440D01*
X032932Y017070D01*
X033117Y017070D01*
X032810Y017070D02*
X032810Y017440D01*
X032563Y017440D02*
X032810Y017070D01*
X032563Y017070D02*
X032563Y017440D01*
X032442Y017379D02*
X032380Y017440D01*
X032257Y017440D01*
X032195Y017379D01*
X032195Y017132D01*
X032257Y017070D01*
X032380Y017070D01*
X032442Y017132D01*
X032442Y017255D01*
X032318Y017255D01*
X032257Y019320D02*
X032380Y019320D01*
X032442Y019382D01*
X032442Y019505D01*
X032318Y019505D01*
X032195Y019382D02*
X032195Y019629D01*
X032257Y019690D01*
X032380Y019690D01*
X032442Y019629D01*
X032563Y019690D02*
X032810Y019320D01*
X032810Y019690D01*
X032932Y019690D02*
X032932Y019320D01*
X033117Y019320D01*
X033179Y019382D01*
X033179Y019629D01*
X033117Y019690D01*
X032932Y019690D01*
X032563Y019690D02*
X032563Y019320D01*
X032257Y019320D02*
X032195Y019382D01*
X032442Y020195D02*
X032195Y020380D01*
X032442Y020565D01*
X032563Y020380D02*
X032810Y020380D01*
X032563Y020945D02*
X032810Y021130D01*
X032563Y021315D01*
X032442Y021130D02*
X032195Y021130D01*
X032257Y021695D02*
X032195Y021757D01*
X032257Y021695D02*
X032380Y021695D01*
X032442Y021757D01*
X032442Y021818D01*
X032380Y021880D01*
X032318Y021880D01*
X032380Y021880D02*
X032442Y021942D01*
X032442Y022004D01*
X032380Y022065D01*
X032257Y022065D01*
X032195Y022004D01*
X032563Y021757D02*
X032625Y021757D01*
X032625Y021695D01*
X032563Y021695D01*
X032563Y021757D01*
X032747Y021757D02*
X032809Y021695D01*
X032933Y021695D01*
X032994Y021757D01*
X032994Y021818D01*
X032933Y021880D01*
X032871Y021880D01*
X032933Y021880D02*
X032994Y021942D01*
X032994Y022004D01*
X032933Y022065D01*
X032809Y022065D01*
X032747Y022004D01*
X033116Y022065D02*
X033116Y021818D01*
X033239Y021695D01*
X033363Y021818D01*
X033363Y022065D01*
X032665Y025070D02*
X032295Y025070D01*
X032418Y025193D01*
X032295Y025317D01*
X032665Y025317D01*
X032603Y025438D02*
X032665Y025500D01*
X032665Y025623D01*
X032603Y025685D01*
X032356Y025685D01*
X032295Y025623D01*
X032295Y025500D01*
X032356Y025438D01*
X032603Y025438D01*
X032295Y025807D02*
X032295Y026054D01*
X032295Y025930D02*
X032665Y025930D01*
X032603Y026175D02*
X032665Y026237D01*
X032665Y026360D01*
X032603Y026422D01*
X032356Y026422D01*
X032295Y026360D01*
X032295Y026237D01*
X032356Y026175D01*
X032603Y026175D01*
X032542Y026543D02*
X032542Y026728D01*
X032480Y026790D01*
X032356Y026790D01*
X032295Y026728D01*
X032295Y026543D01*
X032665Y026543D01*
X032542Y026667D02*
X032665Y026790D01*
X032560Y028945D02*
X032313Y028945D01*
X032560Y029192D01*
X032560Y029254D01*
X032498Y029315D01*
X032375Y029315D01*
X032313Y029254D01*
X032068Y029315D02*
X032068Y028945D01*
X031945Y028945D02*
X032192Y028945D01*
X031945Y029192D02*
X032068Y029315D01*
X032682Y029315D02*
X032682Y029068D01*
X032805Y028945D01*
X032929Y029068D01*
X032929Y029315D01*
X025140Y026704D02*
X024770Y026704D01*
X024770Y026457D02*
X025140Y026704D01*
X025140Y026457D02*
X024770Y026457D01*
X024831Y026335D02*
X024955Y026335D01*
X025017Y026273D01*
X025017Y026088D01*
X025140Y026088D02*
X024770Y026088D01*
X024770Y026273D01*
X024831Y026335D01*
X024770Y025967D02*
X025140Y025967D01*
X024770Y025720D01*
X025140Y025720D01*
D12*
X025316Y031263D02*
X025267Y031261D01*
X025217Y031254D01*
X025169Y031244D01*
X025121Y031230D01*
X025075Y031213D01*
X025030Y031191D01*
X024987Y031166D01*
X024946Y031138D01*
X024908Y031107D01*
X024872Y031073D01*
X024839Y031036D01*
X024809Y030997D01*
X024782Y030955D01*
X024759Y030911D01*
X024739Y030866D01*
X024723Y030819D01*
X024710Y030771D01*
X024702Y030722D01*
X024697Y030673D01*
X024696Y030623D01*
X024699Y030574D01*
X024706Y030525D01*
X024717Y030476D01*
X024732Y030429D01*
X024750Y030383D01*
X024772Y030338D01*
X024798Y030296D01*
X024827Y030256D01*
X024859Y030218D01*
X024893Y030182D01*
X024931Y030150D01*
X024971Y030120D01*
X025013Y030094D01*
X025057Y030072D01*
X025103Y030052D01*
X025150Y030037D01*
X025198Y030025D01*
X025247Y030017D01*
X025296Y030013D01*
X025346Y030013D01*
X025395Y030017D01*
X025444Y030025D01*
X025492Y030037D01*
X025539Y030052D01*
X025585Y030072D01*
X025629Y030094D01*
X025671Y030120D01*
X025711Y030150D01*
X025749Y030182D01*
X025783Y030218D01*
X025815Y030256D01*
X025844Y030296D01*
X025870Y030338D01*
X025892Y030383D01*
X025910Y030429D01*
X025925Y030476D01*
X025936Y030525D01*
X025943Y030574D01*
X025946Y030623D01*
X025945Y030673D01*
X025940Y030722D01*
X025932Y030771D01*
X025919Y030819D01*
X025903Y030866D01*
X025883Y030911D01*
X025860Y030955D01*
X025833Y030997D01*
X025803Y031036D01*
X025770Y031073D01*
X025734Y031107D01*
X025696Y031138D01*
X025655Y031166D01*
X025612Y031191D01*
X025567Y031213D01*
X025521Y031230D01*
X025473Y031244D01*
X025425Y031254D01*
X025375Y031261D01*
X025326Y031263D01*
X008072Y031263D02*
X008121Y031261D01*
X008171Y031254D01*
X008219Y031244D01*
X008267Y031230D01*
X008313Y031213D01*
X008358Y031191D01*
X008401Y031166D01*
X008442Y031138D01*
X008480Y031107D01*
X008516Y031073D01*
X008549Y031036D01*
X008579Y030997D01*
X008606Y030955D01*
X008629Y030911D01*
X008649Y030866D01*
X008665Y030819D01*
X008678Y030771D01*
X008686Y030722D01*
X008691Y030673D01*
X008692Y030623D01*
X008689Y030574D01*
X008682Y030525D01*
X008671Y030476D01*
X008656Y030429D01*
X008638Y030383D01*
X008616Y030338D01*
X008590Y030296D01*
X008561Y030256D01*
X008529Y030218D01*
X008495Y030182D01*
X008457Y030150D01*
X008417Y030120D01*
X008375Y030094D01*
X008331Y030072D01*
X008285Y030052D01*
X008238Y030037D01*
X008190Y030025D01*
X008141Y030017D01*
X008092Y030013D01*
X008042Y030013D01*
X007993Y030017D01*
X007944Y030025D01*
X007896Y030037D01*
X007849Y030052D01*
X007803Y030072D01*
X007759Y030094D01*
X007717Y030120D01*
X007677Y030150D01*
X007639Y030182D01*
X007605Y030218D01*
X007573Y030256D01*
X007544Y030296D01*
X007518Y030338D01*
X007496Y030383D01*
X007478Y030429D01*
X007463Y030476D01*
X007452Y030525D01*
X007445Y030574D01*
X007442Y030623D01*
X007443Y030673D01*
X007448Y030722D01*
X007456Y030771D01*
X007469Y030819D01*
X007485Y030866D01*
X007505Y030911D01*
X007528Y030955D01*
X007555Y030997D01*
X007585Y031036D01*
X007618Y031073D01*
X007654Y031107D01*
X007692Y031138D01*
X007733Y031166D01*
X007776Y031191D01*
X007821Y031213D01*
X007867Y031230D01*
X007915Y031244D01*
X007963Y031254D01*
X008013Y031261D01*
X008062Y031263D01*
X002196Y002365D02*
X002245Y002363D01*
X002295Y002356D01*
X002343Y002346D01*
X002391Y002332D01*
X002437Y002315D01*
X002482Y002293D01*
X002525Y002268D01*
X002566Y002240D01*
X002604Y002209D01*
X002640Y002175D01*
X002673Y002138D01*
X002703Y002099D01*
X002730Y002057D01*
X002753Y002013D01*
X002773Y001968D01*
X002789Y001921D01*
X002802Y001873D01*
X002810Y001824D01*
X002815Y001775D01*
X002816Y001725D01*
X002813Y001676D01*
X002806Y001627D01*
X002795Y001578D01*
X002780Y001531D01*
X002762Y001485D01*
X002740Y001440D01*
X002714Y001398D01*
X002685Y001358D01*
X002653Y001320D01*
X002619Y001284D01*
X002581Y001252D01*
X002541Y001222D01*
X002499Y001196D01*
X002455Y001174D01*
X002409Y001154D01*
X002362Y001139D01*
X002314Y001127D01*
X002265Y001119D01*
X002216Y001115D01*
X002166Y001115D01*
X002117Y001119D01*
X002068Y001127D01*
X002020Y001139D01*
X001973Y001154D01*
X001927Y001174D01*
X001883Y001196D01*
X001841Y001222D01*
X001801Y001252D01*
X001763Y001284D01*
X001729Y001320D01*
X001697Y001358D01*
X001668Y001398D01*
X001642Y001440D01*
X001620Y001485D01*
X001602Y001531D01*
X001587Y001578D01*
X001576Y001627D01*
X001569Y001676D01*
X001566Y001725D01*
X001567Y001775D01*
X001572Y001824D01*
X001580Y001873D01*
X001593Y001921D01*
X001609Y001968D01*
X001629Y002013D01*
X001652Y002057D01*
X001679Y002099D01*
X001709Y002138D01*
X001742Y002175D01*
X001778Y002209D01*
X001816Y002240D01*
X001857Y002268D01*
X001900Y002293D01*
X001945Y002315D01*
X001991Y002332D01*
X002039Y002346D01*
X002087Y002356D01*
X002137Y002363D01*
X002186Y002365D01*
X031202Y002365D02*
X031153Y002363D01*
X031103Y002356D01*
X031055Y002346D01*
X031007Y002332D01*
X030961Y002315D01*
X030916Y002293D01*
X030873Y002268D01*
X030832Y002240D01*
X030794Y002209D01*
X030758Y002175D01*
X030725Y002138D01*
X030695Y002099D01*
X030668Y002057D01*
X030645Y002013D01*
X030625Y001968D01*
X030609Y001921D01*
X030596Y001873D01*
X030588Y001824D01*
X030583Y001775D01*
X030582Y001725D01*
X030585Y001676D01*
X030592Y001627D01*
X030603Y001578D01*
X030618Y001531D01*
X030636Y001485D01*
X030658Y001440D01*
X030684Y001398D01*
X030713Y001358D01*
X030745Y001320D01*
X030779Y001284D01*
X030817Y001252D01*
X030857Y001222D01*
X030899Y001196D01*
X030943Y001174D01*
X030989Y001154D01*
X031036Y001139D01*
X031084Y001127D01*
X031133Y001119D01*
X031182Y001115D01*
X031232Y001115D01*
X031281Y001119D01*
X031330Y001127D01*
X031378Y001139D01*
X031425Y001154D01*
X031471Y001174D01*
X031515Y001196D01*
X031557Y001222D01*
X031597Y001252D01*
X031635Y001284D01*
X031669Y001320D01*
X031701Y001358D01*
X031730Y001398D01*
X031756Y001440D01*
X031778Y001485D01*
X031796Y001531D01*
X031811Y001578D01*
X031822Y001627D01*
X031829Y001676D01*
X031832Y001725D01*
X031831Y001775D01*
X031826Y001824D01*
X031818Y001873D01*
X031805Y001921D01*
X031789Y001968D01*
X031769Y002013D01*
X031746Y002057D01*
X031719Y002099D01*
X031689Y002138D01*
X031656Y002175D01*
X031620Y002209D01*
X031582Y002240D01*
X031541Y002268D01*
X031498Y002293D01*
X031453Y002315D01*
X031407Y002332D01*
X031359Y002346D01*
X031311Y002356D01*
X031261Y002363D01*
X031212Y002365D01*
D13*
X028330Y003182D02*
X026030Y003182D01*
X026030Y013182D01*
X026780Y013182D01*
X026782Y013143D01*
X026788Y013104D01*
X026797Y013066D01*
X026810Y013029D01*
X026827Y012993D01*
X026847Y012960D01*
X026871Y012928D01*
X026897Y012899D01*
X026926Y012873D01*
X026958Y012849D01*
X026991Y012829D01*
X027027Y012812D01*
X027064Y012799D01*
X027102Y012790D01*
X027141Y012784D01*
X027180Y012782D01*
X027219Y012784D01*
X027258Y012790D01*
X027296Y012799D01*
X027333Y012812D01*
X027369Y012829D01*
X027402Y012849D01*
X027434Y012873D01*
X027463Y012899D01*
X027489Y012928D01*
X027513Y012960D01*
X027533Y012993D01*
X027550Y013029D01*
X027563Y013066D01*
X027572Y013104D01*
X027578Y013143D01*
X027580Y013182D01*
X028330Y013182D01*
X028330Y003182D01*
X030680Y005980D02*
X031680Y005980D01*
X031697Y005982D01*
X031714Y005986D01*
X031730Y005993D01*
X031744Y006003D01*
X031757Y006016D01*
X031767Y006030D01*
X031774Y006046D01*
X031778Y006063D01*
X031780Y006080D01*
X031780Y006330D01*
X031730Y006380D01*
X031730Y008980D01*
X031780Y009030D01*
X031780Y009280D01*
X031778Y009297D01*
X031774Y009314D01*
X031767Y009330D01*
X031757Y009344D01*
X031744Y009357D01*
X031730Y009367D01*
X031714Y009374D01*
X031697Y009378D01*
X031680Y009380D01*
X030680Y009380D01*
X030663Y009378D01*
X030646Y009374D01*
X030630Y009367D01*
X030616Y009357D01*
X030603Y009344D01*
X030593Y009330D01*
X030586Y009314D01*
X030582Y009297D01*
X030580Y009280D01*
X030580Y009030D01*
X030630Y008980D01*
X030630Y006380D01*
X030580Y006330D01*
X030580Y006080D01*
X030582Y006063D01*
X030586Y006046D01*
X030593Y006030D01*
X030603Y006016D01*
X030616Y006003D01*
X030630Y005993D01*
X030646Y005986D01*
X030663Y005982D01*
X030680Y005980D01*
X030930Y011680D02*
X030680Y011930D01*
X030680Y012430D01*
X030930Y012680D01*
X030680Y012930D01*
X030680Y013430D01*
X030930Y013680D01*
X030680Y013930D01*
X030680Y014430D01*
X030930Y014680D01*
X030680Y014930D01*
X030680Y015430D01*
X030930Y015680D01*
X030680Y015930D01*
X030680Y016430D01*
X030930Y016680D01*
X030680Y016930D01*
X030680Y017430D01*
X030930Y017680D01*
X031430Y017680D01*
X031680Y017430D01*
X031680Y016930D01*
X031430Y016680D01*
X031680Y016430D01*
X031680Y015930D01*
X031430Y015680D01*
X030930Y015680D01*
X031430Y015680D02*
X031680Y015430D01*
X031680Y014930D01*
X031430Y014680D01*
X031680Y014430D01*
X031680Y013930D01*
X031430Y013680D01*
X031680Y013430D01*
X031680Y012930D01*
X031430Y012680D01*
X031680Y012430D01*
X031680Y011930D01*
X031430Y011680D01*
X030930Y011680D01*
X030930Y012680D02*
X031430Y012680D01*
X031430Y013680D02*
X030930Y013680D01*
X030930Y014680D02*
X031430Y014680D01*
X031430Y016680D02*
X030930Y016680D01*
X028130Y016580D02*
X028130Y015780D01*
X028128Y015763D01*
X028124Y015746D01*
X028117Y015730D01*
X028107Y015716D01*
X028094Y015703D01*
X028080Y015693D01*
X028064Y015686D01*
X028047Y015682D01*
X028030Y015680D01*
X026330Y015680D01*
X026313Y015682D01*
X026296Y015686D01*
X026280Y015693D01*
X026266Y015703D01*
X026253Y015716D01*
X026243Y015730D01*
X026236Y015746D01*
X026232Y015763D01*
X026230Y015780D01*
X026230Y016580D01*
X026232Y016597D01*
X026236Y016614D01*
X026243Y016630D01*
X026253Y016644D01*
X026266Y016657D01*
X026280Y016667D01*
X026296Y016674D01*
X026313Y016678D01*
X026330Y016680D01*
X028030Y016680D01*
X028047Y016678D01*
X028064Y016674D01*
X028080Y016667D01*
X028094Y016657D01*
X028107Y016644D01*
X028117Y016630D01*
X028124Y016614D01*
X028128Y016597D01*
X028130Y016580D01*
X027330Y016180D02*
X027280Y016180D01*
X027080Y016180D02*
X027030Y016180D01*
X026330Y015180D02*
X028030Y015180D01*
X028047Y015178D01*
X028064Y015174D01*
X028080Y015167D01*
X028094Y015157D01*
X028107Y015144D01*
X028117Y015130D01*
X028124Y015114D01*
X028128Y015097D01*
X028130Y015080D01*
X028130Y014280D01*
X028128Y014263D01*
X028124Y014246D01*
X028117Y014230D01*
X028107Y014216D01*
X028094Y014203D01*
X028080Y014193D01*
X028064Y014186D01*
X028047Y014182D01*
X028030Y014180D01*
X026330Y014180D01*
X026313Y014182D01*
X026296Y014186D01*
X026280Y014193D01*
X026266Y014203D01*
X026253Y014216D01*
X026243Y014230D01*
X026236Y014246D01*
X026232Y014263D01*
X026230Y014280D01*
X026230Y015080D01*
X026232Y015097D01*
X026236Y015114D01*
X026243Y015130D01*
X026253Y015144D01*
X026266Y015157D01*
X026280Y015167D01*
X026296Y015174D01*
X026313Y015178D01*
X026330Y015180D01*
X027030Y014680D02*
X027080Y014680D01*
X027280Y014680D02*
X027330Y014680D01*
X023680Y018480D02*
X022680Y018480D01*
X022663Y018482D01*
X022646Y018486D01*
X022630Y018493D01*
X022616Y018503D01*
X022603Y018516D01*
X022593Y018530D01*
X022586Y018546D01*
X022582Y018563D01*
X022580Y018580D01*
X022580Y018830D01*
X022630Y018880D01*
X022630Y021480D01*
X022580Y021530D01*
X022580Y021780D01*
X022582Y021797D01*
X022586Y021814D01*
X022593Y021830D01*
X022603Y021844D01*
X022616Y021857D01*
X022630Y021867D01*
X022646Y021874D01*
X022663Y021878D01*
X022680Y021880D01*
X023680Y021880D01*
X023697Y021878D01*
X023714Y021874D01*
X023730Y021867D01*
X023744Y021857D01*
X023757Y021844D01*
X023767Y021830D01*
X023774Y021814D01*
X023778Y021797D01*
X023780Y021780D01*
X023780Y021530D01*
X023730Y021480D01*
X023730Y018880D01*
X023780Y018830D01*
X023780Y018580D01*
X023778Y018563D01*
X023774Y018546D01*
X023767Y018530D01*
X023757Y018516D01*
X023744Y018503D01*
X023730Y018493D01*
X023714Y018486D01*
X023697Y018482D01*
X023680Y018480D01*
X027680Y020380D02*
X028680Y020380D01*
X028680Y021980D01*
X027680Y021980D01*
X027680Y020380D01*
X027930Y020780D02*
X028180Y021180D01*
X027930Y021180D01*
X028180Y021180D02*
X028430Y020780D01*
X027930Y020780D01*
X028180Y020580D02*
X028180Y021180D01*
X028430Y021180D01*
X028180Y021180D02*
X028180Y021430D01*
X027680Y025380D02*
X028680Y025380D01*
X028680Y026980D01*
X027680Y026980D01*
X027680Y025380D01*
X027930Y025780D02*
X028180Y026180D01*
X027930Y026180D01*
X028180Y026180D02*
X028430Y025780D01*
X027930Y025780D01*
X028180Y025580D02*
X028180Y026180D01*
X028430Y026180D01*
X028180Y026180D02*
X028180Y026430D01*
X030680Y028930D02*
X030930Y028680D01*
X031430Y028680D01*
X031680Y028930D01*
X031680Y029430D01*
X031430Y029680D01*
X030930Y029680D01*
X030680Y029430D01*
X030680Y028930D01*
X020439Y030347D02*
X020439Y030667D01*
X020332Y030774D01*
X020012Y030774D01*
X020012Y030347D01*
X019796Y030347D02*
X019582Y030347D01*
X019689Y030347D02*
X019689Y030774D01*
X019582Y030774D01*
X019689Y030988D02*
X019689Y031094D01*
X019367Y030454D02*
X019260Y030454D01*
X019260Y030347D01*
X019367Y030347D01*
X019367Y030454D01*
X019042Y030347D02*
X019042Y030667D01*
X018936Y030774D01*
X018722Y030774D01*
X018615Y030667D01*
X018398Y030774D02*
X018078Y030774D01*
X017971Y030667D01*
X018078Y030560D01*
X018291Y030560D01*
X018398Y030454D01*
X018291Y030347D01*
X017971Y030347D01*
X017753Y030347D02*
X017433Y030347D01*
X017326Y030454D01*
X017326Y030667D01*
X017433Y030774D01*
X017753Y030774D01*
X017753Y030988D02*
X017753Y030347D01*
X017109Y030774D02*
X017003Y030774D01*
X016789Y030560D01*
X016789Y030347D02*
X016789Y030774D01*
X016572Y030667D02*
X016572Y030347D01*
X016251Y030347D01*
X016145Y030454D01*
X016251Y030560D01*
X016572Y030560D01*
X016572Y030667D02*
X016465Y030774D01*
X016251Y030774D01*
X015927Y030774D02*
X015927Y030454D01*
X015820Y030347D01*
X015714Y030454D01*
X015607Y030347D01*
X015500Y030454D01*
X015500Y030774D01*
X015283Y030774D02*
X014962Y030774D01*
X014856Y030667D01*
X014856Y030454D01*
X014962Y030347D01*
X015283Y030347D01*
X015283Y030988D01*
X014638Y030667D02*
X014638Y030560D01*
X014211Y030560D01*
X014211Y030454D02*
X014211Y030667D01*
X014318Y030774D01*
X014531Y030774D01*
X014638Y030667D01*
X014531Y030347D02*
X014318Y030347D01*
X014211Y030454D01*
X018615Y030347D02*
X018615Y030988D01*
X005393Y030773D02*
X005179Y030773D01*
X005286Y030879D02*
X005286Y030452D01*
X005393Y030346D01*
X004961Y030452D02*
X004961Y030666D01*
X004855Y030773D01*
X004641Y030773D01*
X004534Y030666D01*
X004534Y030452D01*
X004641Y030346D01*
X004855Y030346D01*
X004961Y030452D01*
X004317Y030452D02*
X004210Y030346D01*
X003890Y030346D01*
X003890Y030986D01*
X003890Y030773D02*
X004210Y030773D01*
X004317Y030666D01*
X004317Y030452D01*
X003672Y030346D02*
X003672Y030986D01*
X003459Y030773D01*
X003245Y030986D01*
X003245Y030346D01*
X003028Y030346D02*
X003028Y030773D01*
X002814Y030986D01*
X002601Y030773D01*
X002601Y030346D01*
X002383Y030346D02*
X001956Y030346D01*
X001956Y030986D01*
X001739Y030879D02*
X001632Y030986D01*
X001418Y030986D01*
X001312Y030879D01*
X001312Y030773D01*
X001418Y030666D01*
X001632Y030666D01*
X001739Y030559D01*
X001739Y030452D01*
X001632Y030346D01*
X001418Y030346D01*
X001312Y030452D01*
X002601Y030666D02*
X003028Y030666D01*
X004827Y011902D02*
X005827Y011902D01*
X005844Y011900D01*
X005861Y011896D01*
X005877Y011889D01*
X005891Y011879D01*
X005904Y011866D01*
X005914Y011852D01*
X005921Y011836D01*
X005925Y011819D01*
X005927Y011802D01*
X005927Y011552D01*
X005877Y011502D01*
X005877Y008902D01*
X005927Y008852D01*
X005927Y008602D01*
X005925Y008585D01*
X005921Y008568D01*
X005914Y008552D01*
X005904Y008538D01*
X005891Y008525D01*
X005877Y008515D01*
X005861Y008508D01*
X005844Y008504D01*
X005827Y008502D01*
X004827Y008502D01*
X004810Y008504D01*
X004793Y008508D01*
X004777Y008515D01*
X004763Y008525D01*
X004750Y008538D01*
X004740Y008552D01*
X004733Y008568D01*
X004729Y008585D01*
X004727Y008602D01*
X004727Y008852D01*
X004777Y008902D01*
X004777Y011502D01*
X004727Y011552D01*
X004727Y011802D01*
X004729Y011819D01*
X004733Y011836D01*
X004740Y011852D01*
X004750Y011866D01*
X004763Y011879D01*
X004777Y011889D01*
X004793Y011896D01*
X004810Y011900D01*
X004827Y011902D01*
X004824Y006102D02*
X005824Y006102D01*
X005841Y006100D01*
X005858Y006096D01*
X005874Y006089D01*
X005888Y006079D01*
X005901Y006066D01*
X005911Y006052D01*
X005918Y006036D01*
X005922Y006019D01*
X005924Y006002D01*
X005924Y005752D01*
X005874Y005702D01*
X005874Y003102D01*
X005924Y003052D01*
X005924Y002802D01*
X005922Y002785D01*
X005918Y002768D01*
X005911Y002752D01*
X005901Y002738D01*
X005888Y002725D01*
X005874Y002715D01*
X005858Y002708D01*
X005841Y002704D01*
X005824Y002702D01*
X004824Y002702D01*
X004807Y002704D01*
X004790Y002708D01*
X004774Y002715D01*
X004760Y002725D01*
X004747Y002738D01*
X004737Y002752D01*
X004730Y002768D01*
X004726Y002785D01*
X004724Y002802D01*
X004724Y003052D01*
X004774Y003102D01*
X004774Y005702D01*
X004724Y005752D01*
X004724Y006002D01*
X004726Y006019D01*
X004730Y006036D01*
X004737Y006052D01*
X004747Y006066D01*
X004760Y006079D01*
X004774Y006089D01*
X004790Y006096D01*
X004807Y006100D01*
X004824Y006102D01*
D14*
X008182Y002050D03*
X008174Y002033D03*
X008166Y002016D03*
X008157Y001999D03*
X009358Y002839D03*
X010467Y002226D03*
X010476Y002209D03*
X010484Y002192D03*
X010492Y002176D03*
D15*
X010576Y001999D03*
X009367Y003242D03*
D16*
X009363Y002848D03*
X008203Y002092D03*
X008195Y002075D03*
X008187Y002058D03*
X008178Y002041D03*
X008170Y002024D03*
X008161Y002008D03*
D17*
X009363Y002831D03*
X009363Y003251D03*
X009363Y003268D03*
X009363Y003284D03*
X009363Y003301D03*
X009363Y003318D03*
X010530Y002092D03*
X010539Y002075D03*
X010547Y002058D03*
X010555Y002041D03*
X010572Y002008D03*
D18*
X010039Y002033D03*
X010039Y002713D03*
X009694Y003956D03*
X009098Y003889D03*
X009039Y003956D03*
X008275Y003713D03*
X008115Y003956D03*
X008275Y003343D03*
X008745Y003083D03*
X008686Y002713D03*
X008678Y002016D03*
D19*
X010568Y002016D03*
D20*
X010035Y002041D03*
X010043Y002722D03*
X009984Y003091D03*
X010329Y003108D03*
X010455Y003352D03*
X010606Y003965D03*
X009371Y004981D03*
X009102Y003898D03*
X008279Y003360D03*
X008413Y003108D03*
X008741Y003091D03*
X008682Y002722D03*
X008867Y002730D03*
X009203Y002092D03*
X008682Y002024D03*
X008119Y003965D03*
D21*
X008275Y003352D03*
X009518Y002092D03*
X010047Y002024D03*
X009862Y002730D03*
X010459Y003335D03*
D22*
X009358Y002814D03*
X010560Y002024D03*
D23*
X010455Y003343D03*
X010455Y003713D03*
X010614Y003956D03*
X009707Y004032D03*
X009018Y004032D03*
X008128Y003973D03*
X008279Y003368D03*
X008691Y002033D03*
X009371Y004990D03*
D24*
X009363Y003310D03*
X009363Y003293D03*
X009363Y003276D03*
X009363Y003259D03*
X009363Y002822D03*
X010497Y002159D03*
X010513Y002125D03*
X010530Y002083D03*
X010539Y002066D03*
X010547Y002050D03*
X010555Y002033D03*
D25*
X010018Y002058D03*
X009531Y002100D03*
X009195Y002100D03*
X008699Y002041D03*
X008674Y002747D03*
X008287Y003394D03*
X008145Y003990D03*
X009010Y004024D03*
X009111Y003914D03*
X009371Y004964D03*
X010589Y003982D03*
X009993Y003108D03*
X010051Y002747D03*
D26*
X008884Y002738D03*
X008674Y002738D03*
X008422Y003100D03*
X008287Y003385D03*
X008707Y002050D03*
X010597Y003973D03*
X009371Y004973D03*
D27*
X009358Y004116D03*
X009988Y003100D03*
X010047Y002738D03*
X010022Y002050D03*
X010450Y003368D03*
D28*
X010438Y003410D03*
X010320Y003091D03*
X010060Y002780D03*
X009816Y002780D03*
X009808Y002797D03*
X008892Y002747D03*
X008422Y003091D03*
X008716Y002058D03*
X008985Y004007D03*
X009741Y004007D03*
X010581Y003990D03*
X009371Y004948D03*
D29*
X008229Y002142D03*
X008220Y002125D03*
X008212Y002108D03*
X008195Y002066D03*
D30*
X008728Y002066D03*
X009190Y002108D03*
X009535Y002108D03*
X009820Y002772D03*
X009812Y002789D03*
X010056Y002789D03*
X009997Y003116D03*
X010434Y003419D03*
X009745Y003998D03*
X008728Y003116D03*
X008905Y002772D03*
D31*
X008901Y002755D03*
X008665Y002772D03*
X008296Y003419D03*
X008153Y003998D03*
X008976Y003998D03*
X009119Y003923D03*
X009371Y004956D03*
X010572Y003998D03*
X010438Y003402D03*
X010060Y002772D03*
X009808Y002806D03*
X010009Y002066D03*
D32*
X008733Y002075D03*
X010429Y003427D03*
X008959Y003982D03*
D33*
X008166Y004007D03*
X008905Y002764D03*
X009812Y002814D03*
X009820Y002764D03*
X009829Y002747D03*
X010056Y002797D03*
X009997Y002075D03*
D34*
X009358Y002856D03*
X008266Y002226D03*
X008258Y002209D03*
X008250Y002192D03*
X008233Y002159D03*
X008199Y002083D03*
D35*
X008745Y002083D03*
X008720Y003133D03*
X008308Y003452D03*
X008174Y004015D03*
X008947Y003973D03*
X010005Y003133D03*
X010316Y003083D03*
X010551Y004015D03*
X009988Y002083D03*
D36*
X009518Y002083D03*
X009207Y002083D03*
X008997Y002839D03*
X008695Y002696D03*
X009728Y002839D03*
D37*
X010039Y002831D03*
X010417Y003461D03*
X010534Y004024D03*
X009972Y002092D03*
X009552Y002117D03*
X009174Y002117D03*
X008754Y002092D03*
X008434Y003074D03*
X008720Y003142D03*
X008191Y004024D03*
D38*
X008266Y002218D03*
X008258Y002201D03*
X008250Y002184D03*
X008233Y002150D03*
X008224Y002134D03*
X008216Y002117D03*
X008208Y002100D03*
D39*
X008770Y002100D03*
X008712Y003150D03*
X009829Y002848D03*
X010014Y003150D03*
X009963Y002100D03*
D40*
X010467Y002218D03*
X010476Y002201D03*
X010484Y002184D03*
X010492Y002167D03*
X010501Y002150D03*
X010509Y002134D03*
X010518Y002117D03*
X010526Y002100D03*
D41*
X008783Y002108D03*
X009363Y004099D03*
D42*
X009371Y004872D03*
X008447Y003049D03*
X009942Y002108D03*
D43*
X010505Y002142D03*
X010522Y002108D03*
D44*
X008800Y002117D03*
X009363Y004091D03*
D45*
X009371Y004847D03*
X009925Y002117D03*
D46*
X008842Y002125D03*
X009354Y004066D03*
X009195Y004418D03*
X009371Y004780D03*
D47*
X009371Y004855D03*
X010387Y003520D03*
X009153Y002125D03*
D48*
X009577Y002125D03*
X010022Y003175D03*
X010299Y003049D03*
X008703Y003175D03*
X008342Y003520D03*
D49*
X008464Y003016D03*
X009892Y002125D03*
X010278Y003016D03*
X009371Y004796D03*
D50*
X009371Y004511D03*
X009967Y003898D03*
X009967Y003864D03*
X008758Y003864D03*
X008758Y003898D03*
X009682Y002285D03*
X009690Y002268D03*
X009699Y002251D03*
X009732Y002167D03*
X009741Y002150D03*
X009749Y002134D03*
X009027Y002234D03*
X009018Y002218D03*
X009010Y002201D03*
X009001Y002184D03*
X008993Y002167D03*
X008985Y002150D03*
X008976Y002134D03*
D51*
X008985Y002142D03*
X008993Y002159D03*
X009001Y002192D03*
X009010Y002209D03*
X009018Y002226D03*
X009027Y002243D03*
X009035Y002260D03*
X009043Y002276D03*
X009052Y002293D03*
X009077Y002352D03*
X009085Y002369D03*
X009094Y002386D03*
X009707Y002226D03*
X009715Y002209D03*
X009724Y002192D03*
X009732Y002176D03*
X009741Y002159D03*
X009967Y003889D03*
X009967Y003906D03*
X009371Y004502D03*
X008758Y003906D03*
D52*
X008754Y003889D03*
X008754Y003872D03*
X009972Y003872D03*
X009636Y002386D03*
X009644Y002369D03*
X009652Y002352D03*
X009661Y002335D03*
X009669Y002318D03*
X009678Y002293D03*
X009686Y002276D03*
X009694Y002260D03*
X009703Y002243D03*
X009745Y002142D03*
D53*
X008241Y002167D03*
D54*
X008241Y002176D03*
D55*
X008997Y002176D03*
X009064Y002318D03*
X009098Y002402D03*
X008754Y003856D03*
X009972Y003856D03*
D56*
X009972Y003881D03*
X008754Y003881D03*
X009636Y002394D03*
X009644Y002377D03*
X009652Y002360D03*
X009661Y002344D03*
X009669Y002327D03*
X009669Y002310D03*
X009678Y002302D03*
X009703Y002234D03*
X009711Y002218D03*
X009720Y002201D03*
X009728Y002184D03*
D57*
X010492Y002570D03*
X010501Y002554D03*
X010509Y002537D03*
X010518Y002520D03*
X010518Y002512D03*
X010526Y002495D03*
X010543Y002461D03*
X010560Y002428D03*
X010576Y002394D03*
X010585Y002377D03*
X010593Y002360D03*
X010610Y002344D03*
X010627Y002310D03*
X010627Y002302D03*
X010635Y002285D03*
X010644Y002268D03*
X010652Y002251D03*
X010660Y002234D03*
X010484Y002587D03*
X010476Y002604D03*
X010467Y002621D03*
X010459Y002638D03*
X010450Y002654D03*
X010442Y002671D03*
X010434Y002688D03*
X010425Y002705D03*
X010417Y002722D03*
X010408Y002730D03*
X010400Y002747D03*
X010392Y002764D03*
X010383Y002780D03*
X010375Y002797D03*
X010366Y002814D03*
X010350Y002848D03*
X010333Y002881D03*
X010316Y002915D03*
X010308Y002932D03*
X010299Y002940D03*
X010291Y002957D03*
X010274Y002990D03*
X010047Y003234D03*
X009997Y003301D03*
X009552Y004410D03*
X009543Y004427D03*
X009535Y004444D03*
X009526Y004460D03*
X009510Y004494D03*
X009232Y004494D03*
X009224Y004477D03*
X009216Y004460D03*
X009207Y004444D03*
X009199Y004427D03*
X009190Y004410D03*
X008745Y003318D03*
X008728Y003301D03*
X008712Y003284D03*
X008703Y003268D03*
X008460Y002974D03*
X008443Y002940D03*
X008426Y002915D03*
X008418Y002898D03*
X008409Y002881D03*
X008401Y002864D03*
X008392Y002848D03*
X008384Y002831D03*
X008376Y002814D03*
X008367Y002797D03*
X008359Y002780D03*
X008350Y002764D03*
X008342Y002747D03*
X008334Y002730D03*
X008334Y002722D03*
X008233Y002537D03*
X008216Y002495D03*
X008208Y002478D03*
X008199Y002461D03*
X008191Y002444D03*
X008182Y002428D03*
X008174Y002411D03*
X008166Y002394D03*
X008157Y002377D03*
X008149Y002360D03*
X008115Y002302D03*
X008107Y002285D03*
X008098Y002268D03*
X008090Y002251D03*
X008082Y002234D03*
D58*
X008086Y002243D03*
X008094Y002260D03*
X008103Y002276D03*
X008111Y002293D03*
X008691Y003259D03*
X008707Y003276D03*
X009547Y004418D03*
X009539Y004435D03*
X009531Y004452D03*
X009522Y004469D03*
X009514Y004486D03*
X009371Y004763D03*
X009967Y003326D03*
X010018Y003276D03*
X010035Y003259D03*
X010371Y002806D03*
X010379Y002789D03*
X010639Y002276D03*
X010648Y002260D03*
X010656Y002243D03*
D59*
X009098Y002394D03*
X009081Y002360D03*
X009064Y002327D03*
X009048Y002285D03*
X009031Y002251D03*
X008754Y003847D03*
X009972Y003847D03*
D60*
X009090Y002377D03*
X009073Y002344D03*
X009056Y002310D03*
X009056Y002302D03*
X009039Y002268D03*
D61*
X008292Y002646D03*
X008300Y002663D03*
X008308Y002680D03*
X008317Y002696D03*
X008325Y002713D03*
X008342Y002738D03*
X008350Y002755D03*
X008359Y002772D03*
X008367Y002789D03*
X008376Y002806D03*
X008384Y002822D03*
X008392Y002839D03*
X008401Y002856D03*
X008409Y002873D03*
X008418Y002890D03*
X008426Y002906D03*
X008443Y002948D03*
X008460Y002982D03*
X008283Y002629D03*
X008275Y002612D03*
X008266Y002596D03*
X008250Y002562D03*
X008233Y002528D03*
X008216Y002503D03*
X008208Y002486D03*
X008199Y002470D03*
X008191Y002453D03*
X008182Y002436D03*
X008174Y002419D03*
X008166Y002402D03*
X008157Y002386D03*
X008149Y002369D03*
X008140Y002352D03*
X008132Y002335D03*
X008124Y002318D03*
X008720Y003293D03*
X008737Y003310D03*
X008754Y003326D03*
X008392Y003578D03*
X009207Y004435D03*
X009216Y004452D03*
X009224Y004469D03*
X009232Y004486D03*
X009988Y003310D03*
X010005Y003293D03*
X010274Y002999D03*
X010282Y002982D03*
X010291Y002965D03*
X010299Y002948D03*
X010308Y002923D03*
X010316Y002906D03*
X010392Y002772D03*
X010400Y002755D03*
X010408Y002738D03*
X010417Y002713D03*
X010425Y002696D03*
X010434Y002680D03*
X010442Y002663D03*
X010450Y002646D03*
X010459Y002629D03*
X010467Y002612D03*
X010476Y002596D03*
X010484Y002579D03*
X010492Y002562D03*
X010501Y002545D03*
X010509Y002528D03*
X010526Y002503D03*
X010543Y002470D03*
X010560Y002436D03*
X010576Y002402D03*
X010585Y002386D03*
X010593Y002369D03*
X010602Y002352D03*
X010610Y002335D03*
X010618Y002318D03*
X010635Y002293D03*
D62*
X010614Y002327D03*
X010043Y003251D03*
X010026Y003268D03*
X010009Y003284D03*
X009976Y003318D03*
X008682Y003251D03*
X008321Y002705D03*
X008313Y002688D03*
X008304Y002671D03*
X008296Y002654D03*
X008287Y002638D03*
X008279Y002621D03*
X008271Y002604D03*
X008262Y002587D03*
X008254Y002570D03*
X008245Y002554D03*
X008136Y002344D03*
X008128Y002327D03*
X008119Y002310D03*
X009371Y004754D03*
D63*
X009073Y002335D03*
D64*
X009631Y002402D03*
X009371Y004519D03*
D65*
X009363Y002411D03*
D66*
X008468Y002990D03*
X008451Y002957D03*
X008434Y002932D03*
X008678Y003234D03*
X008224Y002520D03*
X008224Y002512D03*
X010324Y002898D03*
X010341Y002864D03*
X010358Y002831D03*
X010534Y002478D03*
X010551Y002444D03*
X010568Y002411D03*
X009518Y004477D03*
D67*
X009363Y002419D03*
D68*
X008468Y002999D03*
X008451Y002965D03*
X008434Y002923D03*
X008258Y002579D03*
X008241Y002545D03*
X010341Y003578D03*
X010534Y002486D03*
X010551Y002453D03*
X010568Y002419D03*
D69*
X009363Y002428D03*
D70*
X009363Y002436D03*
X009363Y002982D03*
D71*
X009363Y002444D03*
D72*
X009363Y002453D03*
D73*
X009358Y002461D03*
D74*
X009363Y002470D03*
D75*
X009358Y002478D03*
D76*
X009363Y002486D03*
D77*
X009358Y002495D03*
D78*
X009363Y002503D03*
D79*
X009363Y002512D03*
D80*
X009358Y002520D03*
D81*
X009363Y002528D03*
X009363Y002999D03*
D82*
X009358Y002537D03*
D83*
X009363Y002545D03*
D84*
X009363Y002554D03*
D85*
X009363Y002562D03*
D86*
X009363Y002570D03*
D87*
X009363Y002579D03*
X009363Y003016D03*
D88*
X009363Y002587D03*
D89*
X009358Y002596D03*
D90*
X009363Y002604D03*
D91*
X009358Y002612D03*
X009358Y003083D03*
D92*
X009363Y003024D03*
X009363Y002621D03*
X010035Y004267D03*
X008691Y004267D03*
D93*
X009358Y002629D03*
D94*
X009363Y002638D03*
X010051Y004250D03*
X008674Y004250D03*
D95*
X008661Y004242D03*
X009367Y003032D03*
X009358Y002646D03*
X010064Y004242D03*
D96*
X009363Y003108D03*
X009363Y002654D03*
X008657Y004234D03*
D97*
X008644Y004225D03*
X009358Y003116D03*
X009358Y002663D03*
X010081Y004225D03*
D98*
X009358Y002671D03*
D99*
X009363Y002680D03*
D100*
X009358Y002688D03*
X008636Y004217D03*
X010089Y004217D03*
D101*
X009363Y003133D03*
X009363Y002696D03*
D102*
X010035Y002705D03*
X009094Y003881D03*
X009699Y004040D03*
X010623Y003948D03*
X009371Y004998D03*
X008271Y003335D03*
X008691Y002705D03*
D103*
X009358Y002705D03*
X009358Y003142D03*
X008611Y004192D03*
X010114Y004192D03*
D104*
X010119Y004183D03*
X008607Y004183D03*
X009363Y002713D03*
D105*
X009358Y002722D03*
X009358Y002730D03*
X009358Y003150D03*
D106*
X008989Y002848D03*
X008678Y002730D03*
X010047Y002730D03*
X010450Y003360D03*
D107*
X009363Y003158D03*
X009363Y002738D03*
X008573Y004150D03*
D108*
X008997Y004015D03*
X009728Y004015D03*
X010324Y003100D03*
X010056Y002755D03*
X009846Y002738D03*
X008670Y002755D03*
X008292Y003402D03*
D109*
X008569Y004141D03*
X009358Y003167D03*
X009358Y002747D03*
X010156Y004141D03*
D110*
X010177Y004116D03*
X010186Y004099D03*
X009363Y003175D03*
X009363Y002755D03*
X008539Y004099D03*
D111*
X008304Y003436D03*
X008430Y003083D03*
X008674Y002806D03*
X008909Y002822D03*
X009825Y002755D03*
X010051Y002806D03*
X009774Y003973D03*
X009371Y004939D03*
D112*
X008292Y003410D03*
X008728Y003108D03*
X008670Y002764D03*
X010056Y002764D03*
X010442Y003394D03*
D113*
X010198Y004074D03*
X010190Y004091D03*
X010182Y004108D03*
X009358Y002764D03*
X008535Y004091D03*
X008544Y004108D03*
D114*
X009363Y003192D03*
X009363Y002772D03*
D115*
X008913Y002780D03*
X008913Y002797D03*
X008913Y002814D03*
X008670Y002797D03*
X008670Y002780D03*
X008300Y003427D03*
X010560Y004007D03*
D116*
X009358Y002780D03*
D117*
X008913Y002789D03*
X008913Y002806D03*
X008670Y002789D03*
D118*
X009363Y002789D03*
X009363Y003209D03*
X009363Y003343D03*
D119*
X009358Y002797D03*
D120*
X009363Y002806D03*
X009363Y003226D03*
X009363Y003326D03*
D121*
X009816Y002831D03*
X010009Y003142D03*
X010312Y003074D03*
X009783Y003965D03*
X008943Y003965D03*
X008313Y003461D03*
X008674Y002814D03*
X008909Y002831D03*
X009371Y004914D03*
D122*
X010425Y003444D03*
X010056Y002814D03*
D123*
X009820Y002839D03*
X008905Y002839D03*
X008678Y002822D03*
X008317Y003469D03*
D124*
X009816Y002822D03*
X010429Y003436D03*
D125*
X010421Y003452D03*
X010051Y002822D03*
X009791Y003956D03*
X008934Y003956D03*
X009371Y004922D03*
D126*
X010043Y003226D03*
X010329Y002890D03*
X010337Y002873D03*
X010345Y002856D03*
X010354Y002839D03*
X010362Y002822D03*
D127*
X008686Y002831D03*
D128*
X008691Y002839D03*
X010035Y002839D03*
X009371Y004906D03*
D129*
X010404Y003494D03*
X010026Y002848D03*
X008699Y002848D03*
X008329Y003494D03*
D130*
X008321Y003478D03*
X008901Y002848D03*
X009371Y004897D03*
D131*
X009720Y004024D03*
X009736Y002848D03*
X008283Y003377D03*
D132*
X008674Y003956D03*
X008665Y003973D03*
X009329Y004015D03*
X009371Y004645D03*
X010060Y003973D03*
X010051Y003956D03*
X009900Y002856D03*
X008833Y002873D03*
X008825Y002856D03*
D133*
X008825Y002864D03*
X009379Y003830D03*
X009371Y004637D03*
D134*
X009363Y002864D03*
D135*
X008846Y002898D03*
X009896Y002864D03*
X010056Y003965D03*
X010072Y003990D03*
X008670Y003965D03*
D136*
X009358Y002873D03*
D137*
X009888Y002873D03*
D138*
X009888Y002881D03*
X008838Y002881D03*
X008661Y003982D03*
X009325Y004007D03*
X010064Y003982D03*
D139*
X009363Y002881D03*
D140*
X008846Y002890D03*
X009879Y002890D03*
D141*
X009358Y002890D03*
X008770Y003805D03*
X009955Y003805D03*
D142*
X009363Y002898D03*
D143*
X009875Y002898D03*
X008657Y003990D03*
X009371Y004620D03*
D144*
X009363Y003385D03*
X009363Y002906D03*
D145*
X009367Y002915D03*
X009358Y003394D03*
D146*
X009363Y003402D03*
X009363Y003553D03*
X009363Y002923D03*
D147*
X009363Y002932D03*
X009363Y003427D03*
X009363Y003444D03*
X009363Y003528D03*
D148*
X009363Y003494D03*
X009363Y003478D03*
X009363Y003461D03*
X009363Y002940D03*
D149*
X009363Y002948D03*
D150*
X009358Y002957D03*
D151*
X009363Y002965D03*
D152*
X009358Y002974D03*
D153*
X008472Y003007D03*
X010287Y002974D03*
D154*
X009363Y002990D03*
D155*
X009358Y003007D03*
D156*
X010274Y003007D03*
X010350Y003570D03*
D157*
X010282Y003024D03*
X008460Y003024D03*
D158*
X008455Y003032D03*
X008363Y003553D03*
X009363Y004082D03*
D159*
X010375Y003536D03*
X010291Y003032D03*
D160*
X010291Y003041D03*
X010383Y003528D03*
X008451Y003041D03*
D161*
X009367Y003041D03*
D162*
X009363Y003049D03*
X009363Y003100D03*
D163*
X008443Y003058D03*
D164*
X009367Y003058D03*
D165*
X010022Y003167D03*
X010299Y003058D03*
X009375Y004880D03*
D166*
X010408Y003486D03*
X010308Y003066D03*
X008434Y003066D03*
X008325Y003486D03*
D167*
X008682Y004259D03*
X008691Y004276D03*
X010035Y004276D03*
X010043Y004259D03*
X009363Y003066D03*
D168*
X009972Y003074D03*
X009031Y004040D03*
X008745Y003074D03*
D169*
X009358Y003074D03*
D170*
X009976Y003083D03*
X010463Y003326D03*
X009371Y005006D03*
X008271Y003326D03*
X008413Y003116D03*
D171*
X009358Y003091D03*
D172*
X008737Y003100D03*
X009106Y003906D03*
D173*
X010333Y003116D03*
D174*
X010001Y003125D03*
X009766Y003982D03*
X009757Y003990D03*
X008968Y003990D03*
X008304Y003444D03*
X008724Y003125D03*
X009371Y004931D03*
D175*
X009363Y003125D03*
D176*
X010018Y003158D03*
X010522Y004032D03*
X009371Y004889D03*
X008203Y004032D03*
X008707Y003158D03*
D177*
X008707Y003167D03*
X008338Y003511D03*
D178*
X008346Y003528D03*
X008699Y003184D03*
X010026Y003184D03*
D179*
X009363Y003184D03*
X009363Y003352D03*
X008506Y004040D03*
X008514Y004057D03*
X008523Y004074D03*
X010211Y004057D03*
X010219Y004040D03*
D180*
X010026Y003192D03*
X008699Y003192D03*
D181*
X008691Y003200D03*
X010035Y003200D03*
X010371Y003545D03*
X009371Y004822D03*
X009371Y004830D03*
D182*
X009363Y003200D03*
D183*
X008691Y003209D03*
X009371Y004813D03*
D184*
X010039Y003209D03*
D185*
X010039Y003217D03*
X010358Y003562D03*
X008686Y003217D03*
D186*
X009363Y003217D03*
X009363Y003234D03*
X009363Y003335D03*
D187*
X008686Y003226D03*
D188*
X008678Y003242D03*
X008770Y003343D03*
X009955Y003343D03*
X010047Y003242D03*
D189*
X010459Y003318D03*
X008107Y003948D03*
D190*
X008401Y003587D03*
X008762Y003335D03*
X009963Y003335D03*
D191*
X009942Y003352D03*
X010329Y003587D03*
X008783Y003352D03*
D192*
X008791Y003360D03*
X009934Y003360D03*
X009371Y004721D03*
D193*
X010144Y004158D03*
X009363Y003360D03*
X008581Y004158D03*
D194*
X009363Y003368D03*
D195*
X009358Y003377D03*
D196*
X010446Y003377D03*
X008136Y003982D03*
D197*
X010446Y003385D03*
D198*
X009363Y003410D03*
X009363Y003545D03*
D199*
X009363Y003536D03*
X009363Y003520D03*
X009363Y003436D03*
X009363Y003419D03*
D200*
X009363Y003452D03*
X009363Y003469D03*
X009363Y003486D03*
X009363Y003503D03*
D201*
X010413Y003469D03*
D202*
X010413Y003478D03*
X009363Y004108D03*
D203*
X008334Y003503D03*
X010400Y003503D03*
D204*
X009367Y003511D03*
D205*
X010392Y003511D03*
X009375Y004864D03*
D206*
X008350Y003536D03*
D207*
X008359Y003545D03*
D208*
X010362Y003553D03*
D209*
X009371Y004805D03*
X008371Y003562D03*
D210*
X009363Y003562D03*
D211*
X009363Y004074D03*
X009371Y004788D03*
X008380Y003570D03*
D212*
X009363Y003570D03*
D213*
X009363Y003578D03*
D214*
X009363Y003587D03*
D215*
X008422Y003595D03*
D216*
X009363Y003595D03*
D217*
X010308Y003595D03*
D218*
X009367Y003604D03*
X009367Y003620D03*
X009367Y003637D03*
X009367Y003654D03*
X009367Y003671D03*
X009367Y003688D03*
X009367Y003704D03*
D219*
X009367Y003696D03*
X009367Y003679D03*
X009367Y003662D03*
X009367Y003646D03*
X009367Y003629D03*
X009367Y003612D03*
D220*
X009358Y003713D03*
D221*
X009363Y003721D03*
D222*
X009363Y003730D03*
D223*
X009363Y003738D03*
D224*
X009367Y003746D03*
D225*
X009363Y003755D03*
D226*
X009363Y003763D03*
D227*
X009363Y003772D03*
D228*
X009363Y003780D03*
D229*
X009363Y003788D03*
D230*
X009363Y003797D03*
D231*
X009375Y003805D03*
X010098Y004032D03*
X008628Y004032D03*
D232*
X008766Y003814D03*
D233*
X009375Y003814D03*
D234*
X009963Y003814D03*
D235*
X009963Y003822D03*
X008762Y003822D03*
X008762Y003940D03*
D236*
X008653Y003998D03*
X009316Y003998D03*
X009375Y003822D03*
D237*
X009972Y003830D03*
X009963Y003931D03*
X008762Y003931D03*
X008762Y003830D03*
D238*
X008758Y003839D03*
X009967Y003839D03*
D239*
X009375Y003839D03*
D240*
X009375Y003847D03*
X009367Y003914D03*
X009333Y004024D03*
D241*
X009375Y003856D03*
D242*
X009379Y003864D03*
D243*
X009379Y003872D03*
D244*
X009375Y003881D03*
D245*
X009375Y003889D03*
X009342Y004032D03*
D246*
X009371Y003898D03*
X009371Y004670D03*
D247*
X009371Y004679D03*
X009371Y003906D03*
D248*
X009967Y003914D03*
X008758Y003914D03*
D249*
X008762Y003923D03*
X009963Y003923D03*
D250*
X009358Y003923D03*
D251*
X009312Y003931D03*
X009312Y003948D03*
X009371Y004578D03*
D252*
X009371Y004570D03*
X009312Y003956D03*
X009312Y003940D03*
D253*
X009959Y003940D03*
D254*
X009959Y003948D03*
X008766Y003948D03*
D255*
X008636Y004024D03*
X009308Y003965D03*
X010089Y004024D03*
D256*
X009308Y003973D03*
D257*
X009312Y003982D03*
X009312Y003990D03*
X009371Y004595D03*
D258*
X009371Y004628D03*
X010077Y003998D03*
D259*
X009371Y004612D03*
X008649Y004007D03*
D260*
X010081Y004007D03*
D261*
X009371Y004586D03*
X008640Y004015D03*
D262*
X010081Y004015D03*
D263*
X009346Y004040D03*
D264*
X008527Y004082D03*
X008518Y004066D03*
X008510Y004049D03*
X010198Y004082D03*
X010207Y004066D03*
X010215Y004049D03*
D265*
X009350Y004049D03*
D266*
X009354Y004057D03*
X009371Y004738D03*
D267*
X008548Y004116D03*
D268*
X008556Y004124D03*
X010169Y004124D03*
D269*
X008560Y004133D03*
D270*
X010148Y004150D03*
X010165Y004133D03*
D271*
X010131Y004166D03*
X008586Y004166D03*
D272*
X008598Y004175D03*
X010127Y004175D03*
D273*
X008623Y004200D03*
D274*
X010106Y004200D03*
D275*
X010098Y004208D03*
X008628Y004208D03*
D276*
X010072Y004234D03*
D277*
X009371Y004528D03*
D278*
X009371Y004536D03*
D279*
X009371Y004544D03*
D280*
X009371Y004553D03*
D281*
X009371Y004561D03*
D282*
X009371Y004603D03*
D283*
X009371Y004654D03*
D284*
X009371Y004662D03*
D285*
X009371Y004687D03*
D286*
X009371Y004696D03*
D287*
X009371Y004704D03*
D288*
X009371Y004712D03*
D289*
X009371Y004729D03*
D290*
X009371Y004746D03*
D291*
X009371Y004771D03*
D292*
X009371Y004838D03*
D293*
X003667Y005620D02*
X003667Y006413D01*
X003317Y007220D02*
X001617Y007220D01*
X001613Y008000D02*
X003313Y008000D01*
X003663Y008800D02*
X003663Y009593D01*
X003313Y010400D02*
X001613Y010400D01*
X001263Y009605D02*
X001263Y008800D01*
X001763Y009200D02*
X001765Y009252D01*
X001771Y009304D01*
X001781Y009356D01*
X001794Y009406D01*
X001811Y009456D01*
X001832Y009504D01*
X001857Y009550D01*
X001885Y009594D01*
X001916Y009636D01*
X001950Y009676D01*
X001987Y009713D01*
X002027Y009747D01*
X002069Y009778D01*
X002113Y009806D01*
X002159Y009831D01*
X002207Y009852D01*
X002257Y009869D01*
X002307Y009882D01*
X002359Y009892D01*
X002411Y009898D01*
X002463Y009900D01*
X002515Y009898D01*
X002567Y009892D01*
X002619Y009882D01*
X002669Y009869D01*
X002719Y009852D01*
X002767Y009831D01*
X002813Y009806D01*
X002857Y009778D01*
X002899Y009747D01*
X002939Y009713D01*
X002976Y009676D01*
X003010Y009636D01*
X003041Y009594D01*
X003069Y009550D01*
X003094Y009504D01*
X003115Y009456D01*
X003132Y009406D01*
X003145Y009356D01*
X003155Y009304D01*
X003161Y009252D01*
X003163Y009200D01*
X003161Y009148D01*
X003155Y009096D01*
X003145Y009044D01*
X003132Y008994D01*
X003115Y008944D01*
X003094Y008896D01*
X003069Y008850D01*
X003041Y008806D01*
X003010Y008764D01*
X002976Y008724D01*
X002939Y008687D01*
X002899Y008653D01*
X002857Y008622D01*
X002813Y008594D01*
X002767Y008569D01*
X002719Y008548D01*
X002669Y008531D01*
X002619Y008518D01*
X002567Y008508D01*
X002515Y008502D01*
X002463Y008500D01*
X002411Y008502D01*
X002359Y008508D01*
X002307Y008518D01*
X002257Y008531D01*
X002207Y008548D01*
X002159Y008569D01*
X002113Y008594D01*
X002069Y008622D01*
X002027Y008653D01*
X001987Y008687D01*
X001950Y008724D01*
X001916Y008764D01*
X001885Y008806D01*
X001857Y008850D01*
X001832Y008896D01*
X001811Y008944D01*
X001794Y008994D01*
X001781Y009044D01*
X001771Y009096D01*
X001765Y009148D01*
X001763Y009200D01*
X001267Y006425D02*
X001267Y005620D01*
X001617Y004820D02*
X003317Y004820D01*
X001767Y006020D02*
X001769Y006072D01*
X001775Y006124D01*
X001785Y006176D01*
X001798Y006226D01*
X001815Y006276D01*
X001836Y006324D01*
X001861Y006370D01*
X001889Y006414D01*
X001920Y006456D01*
X001954Y006496D01*
X001991Y006533D01*
X002031Y006567D01*
X002073Y006598D01*
X002117Y006626D01*
X002163Y006651D01*
X002211Y006672D01*
X002261Y006689D01*
X002311Y006702D01*
X002363Y006712D01*
X002415Y006718D01*
X002467Y006720D01*
X002519Y006718D01*
X002571Y006712D01*
X002623Y006702D01*
X002673Y006689D01*
X002723Y006672D01*
X002771Y006651D01*
X002817Y006626D01*
X002861Y006598D01*
X002903Y006567D01*
X002943Y006533D01*
X002980Y006496D01*
X003014Y006456D01*
X003045Y006414D01*
X003073Y006370D01*
X003098Y006324D01*
X003119Y006276D01*
X003136Y006226D01*
X003149Y006176D01*
X003159Y006124D01*
X003165Y006072D01*
X003167Y006020D01*
X003165Y005968D01*
X003159Y005916D01*
X003149Y005864D01*
X003136Y005814D01*
X003119Y005764D01*
X003098Y005716D01*
X003073Y005670D01*
X003045Y005626D01*
X003014Y005584D01*
X002980Y005544D01*
X002943Y005507D01*
X002903Y005473D01*
X002861Y005442D01*
X002817Y005414D01*
X002771Y005389D01*
X002723Y005368D01*
X002673Y005351D01*
X002623Y005338D01*
X002571Y005328D01*
X002519Y005322D01*
X002467Y005320D01*
X002415Y005322D01*
X002363Y005328D01*
X002311Y005338D01*
X002261Y005351D01*
X002211Y005368D01*
X002163Y005389D01*
X002117Y005414D01*
X002073Y005442D01*
X002031Y005473D01*
X001991Y005507D01*
X001954Y005544D01*
X001920Y005584D01*
X001889Y005626D01*
X001861Y005670D01*
X001836Y005716D01*
X001815Y005764D01*
X001798Y005814D01*
X001785Y005864D01*
X001775Y005916D01*
X001769Y005968D01*
X001767Y006020D01*
X003814Y018857D02*
X011885Y018857D01*
X012180Y018857D01*
X012180Y028503D01*
X011885Y028503D01*
X011885Y027519D01*
X003814Y027519D01*
X003814Y028503D01*
X011885Y028503D01*
X011885Y019841D02*
X003814Y019841D01*
X003814Y018857D01*
X001550Y021436D02*
X001314Y021711D01*
X001314Y025649D01*
X001550Y025924D01*
X011885Y019841D02*
X011885Y018857D01*
D294*
X031180Y019499D03*
X031180Y020286D03*
X031180Y021074D03*
X031180Y021861D03*
X031180Y025786D03*
X031180Y026574D03*
D295*
X028180Y026730D03*
X028180Y021730D03*
D296*
X028180Y022355D03*
X028180Y020005D03*
X028180Y025005D03*
X028180Y027355D03*
D297*
X023180Y022050D03*
X023180Y018310D03*
X031180Y009550D03*
X031180Y005810D03*
X005324Y006272D03*
X005327Y008332D03*
X005327Y012072D03*
X005324Y002532D03*
D298*
X027080Y014380D02*
X027080Y014680D01*
X027080Y014980D01*
X027280Y014980D02*
X027280Y014680D01*
X027280Y014380D01*
X027280Y015880D02*
X027280Y016180D01*
X027280Y016480D01*
X027080Y016480D02*
X027080Y016180D01*
X027080Y015880D01*
D299*
X026280Y012930D02*
X026282Y012954D01*
X026288Y012978D01*
X026297Y013000D01*
X026310Y013020D01*
X026326Y013038D01*
X026345Y013053D01*
X026366Y013066D01*
X026388Y013074D01*
X026412Y013079D01*
X026436Y013080D01*
X026460Y013077D01*
X026483Y013070D01*
X026505Y013060D01*
X026525Y013046D01*
X026542Y013029D01*
X026557Y013010D01*
X026568Y012989D01*
X026576Y012966D01*
X026580Y012942D01*
X026580Y012918D01*
X026576Y012894D01*
X026568Y012871D01*
X026557Y012850D01*
X026542Y012831D01*
X026525Y012814D01*
X026505Y012800D01*
X026483Y012790D01*
X026460Y012783D01*
X026436Y012780D01*
X026412Y012781D01*
X026388Y012786D01*
X026366Y012794D01*
X026345Y012807D01*
X026326Y012822D01*
X026310Y012840D01*
X026297Y012860D01*
X026288Y012882D01*
X026282Y012906D01*
X026280Y012930D01*
X027028Y010859D02*
X027103Y010859D01*
X027178Y010784D01*
X027253Y010859D01*
X027328Y010859D01*
X027403Y010784D01*
X027403Y010634D01*
X027328Y010559D01*
X027328Y010399D02*
X027403Y010324D01*
X027403Y010174D01*
X027328Y010099D01*
X027178Y010099D02*
X027103Y010249D01*
X027103Y010324D01*
X027178Y010399D01*
X027328Y010399D01*
X027178Y010099D02*
X026953Y010099D01*
X026953Y010399D01*
X027028Y010559D02*
X026953Y010634D01*
X026953Y010784D01*
X027028Y010859D01*
X027178Y010784D02*
X027178Y010709D01*
X027178Y009938D02*
X027328Y009938D01*
X027403Y009863D01*
X027403Y009713D01*
X027328Y009638D01*
X027178Y009638D02*
X027103Y009788D01*
X027103Y009863D01*
X027178Y009938D01*
X026953Y009938D02*
X026953Y009638D01*
X027178Y009638D01*
X027103Y009478D02*
X027028Y009478D01*
X026953Y009403D01*
X026953Y009253D01*
X027028Y009178D01*
X027028Y009018D02*
X026953Y008943D01*
X026953Y008792D01*
X027028Y008717D01*
X027328Y008717D01*
X027403Y008792D01*
X027403Y008943D01*
X027328Y009018D01*
X027178Y009018D01*
X027178Y008867D01*
X027028Y008557D02*
X027328Y008557D01*
X027403Y008482D01*
X027403Y008332D01*
X027328Y008257D01*
X027028Y008557D01*
X026953Y008482D01*
X026953Y008332D01*
X027028Y008257D01*
X027328Y008257D01*
X027328Y008097D02*
X027403Y008022D01*
X027403Y007872D01*
X027328Y007797D01*
X027178Y007947D02*
X027178Y008022D01*
X027253Y008097D01*
X027328Y008097D01*
X027178Y008022D02*
X027103Y008097D01*
X027028Y008097D01*
X026953Y008022D01*
X026953Y007872D01*
X027028Y007797D01*
X027178Y007636D02*
X027178Y007336D01*
X026953Y007561D01*
X027403Y007561D01*
X027178Y007176D02*
X027028Y007176D01*
X026953Y007101D01*
X026953Y006876D01*
X027403Y006876D01*
X027253Y006876D02*
X027253Y007101D01*
X027178Y007176D01*
X027253Y006716D02*
X027328Y006716D01*
X027403Y006641D01*
X027403Y006490D01*
X027328Y006415D01*
X027178Y006490D02*
X027103Y006415D01*
X027028Y006415D01*
X026953Y006490D01*
X026953Y006641D01*
X027028Y006716D01*
X027178Y006641D02*
X027253Y006716D01*
X027178Y006641D02*
X027178Y006490D01*
X026953Y006255D02*
X027403Y006255D01*
X027403Y005955D02*
X026953Y005955D01*
X027103Y006105D01*
X026953Y006255D01*
X027403Y009178D02*
X027103Y009478D01*
X027403Y009478D02*
X027403Y009178D01*
X022230Y025980D02*
X022232Y026047D01*
X022238Y026115D01*
X022248Y026182D01*
X022262Y026248D01*
X022279Y026313D01*
X022301Y026377D01*
X022326Y026440D01*
X022355Y026501D01*
X022387Y026560D01*
X022423Y026617D01*
X022462Y026672D01*
X022504Y026725D01*
X022549Y026775D01*
X022597Y026822D01*
X022648Y026867D01*
X022701Y026908D01*
X022757Y026947D01*
X022815Y026982D01*
X022875Y027013D01*
X022936Y027041D01*
X022999Y027065D01*
X023063Y027086D01*
X023129Y027102D01*
X023195Y027115D01*
X023262Y027124D01*
X023329Y027129D01*
X023397Y027130D01*
X023464Y027127D01*
X023531Y027120D01*
X023598Y027109D01*
X023664Y027094D01*
X023729Y027076D01*
X023793Y027053D01*
X023855Y027027D01*
X023916Y026998D01*
X023974Y026964D01*
X024031Y026928D01*
X024086Y026888D01*
X024138Y026845D01*
X024187Y026799D01*
X024234Y026750D01*
X024278Y026699D01*
X024318Y026645D01*
X024356Y026589D01*
X024390Y026530D01*
X024420Y026470D01*
X024447Y026408D01*
X024471Y026345D01*
X024490Y026280D01*
X024506Y026215D01*
X024518Y026148D01*
X024526Y026081D01*
X024530Y026014D01*
X024530Y025946D01*
X024526Y025879D01*
X024518Y025812D01*
X024506Y025745D01*
X024490Y025680D01*
X024471Y025615D01*
X024447Y025552D01*
X024420Y025490D01*
X024390Y025430D01*
X024356Y025371D01*
X024318Y025315D01*
X024278Y025261D01*
X024234Y025210D01*
X024187Y025161D01*
X024138Y025115D01*
X024086Y025072D01*
X024031Y025032D01*
X023974Y024996D01*
X023916Y024962D01*
X023855Y024933D01*
X023793Y024907D01*
X023729Y024884D01*
X023664Y024866D01*
X023598Y024851D01*
X023531Y024840D01*
X023464Y024833D01*
X023397Y024830D01*
X023329Y024831D01*
X023262Y024836D01*
X023195Y024845D01*
X023129Y024858D01*
X023063Y024874D01*
X022999Y024895D01*
X022936Y024919D01*
X022875Y024947D01*
X022815Y024978D01*
X022757Y025013D01*
X022701Y025052D01*
X022648Y025093D01*
X022597Y025138D01*
X022549Y025185D01*
X022504Y025235D01*
X022462Y025288D01*
X022423Y025343D01*
X022387Y025400D01*
X022355Y025459D01*
X022326Y025520D01*
X022301Y025583D01*
X022279Y025647D01*
X022262Y025712D01*
X022248Y025778D01*
X022238Y025845D01*
X022232Y025913D01*
X022230Y025980D01*
X023180Y027112D02*
X023180Y027530D01*
X023580Y027530D01*
X023580Y027112D01*
D300*
X023746Y025103D02*
X023692Y025083D01*
X023637Y025065D01*
X023581Y025051D01*
X023524Y025041D01*
X023467Y025034D01*
X023409Y025030D01*
X023351Y025030D01*
X023293Y025034D01*
X023236Y025041D01*
X023179Y025051D01*
X023123Y025065D01*
X023068Y025083D01*
X023014Y025103D01*
X024257Y025614D02*
X024278Y025671D01*
X024296Y025729D01*
X024310Y025788D01*
X024321Y025848D01*
X024327Y025908D01*
X024330Y025968D01*
X024329Y026029D01*
X024324Y026089D01*
X024315Y026149D01*
X024302Y026209D01*
X024286Y026267D01*
X024266Y026324D01*
X024242Y026380D01*
X024215Y026434D01*
X024184Y026486D01*
X024150Y026537D01*
X024113Y026584D01*
X024073Y026630D01*
X024030Y026673D01*
X023984Y026713D01*
X023937Y026750D01*
X023886Y026784D01*
X023834Y026815D01*
X023780Y026842D01*
X023724Y026866D01*
X023667Y026886D01*
X023609Y026902D01*
X023549Y026915D01*
X023489Y026924D01*
X023429Y026929D01*
X023368Y026930D01*
X023308Y026927D01*
X023248Y026921D01*
X023188Y026910D01*
X023129Y026896D01*
X023071Y026878D01*
X023014Y026857D01*
X022503Y026346D02*
X022483Y026292D01*
X022465Y026237D01*
X022451Y026181D01*
X022441Y026124D01*
X022434Y026067D01*
X022430Y026009D01*
X022430Y025951D01*
X022434Y025893D01*
X022441Y025836D01*
X022451Y025779D01*
X022465Y025723D01*
X022483Y025668D01*
X022503Y025614D01*
M02*
