%
M48
M72
T01C0.0236
T02C0.0315
T03C0.0320
T04C0.0400
T05C0.0440
T06C0.0560
T07C0.1250
%
T01
X13491Y10929
X15731Y11426
X7430Y15430
X4305Y17180
X19680Y17180
X20680Y9680
T02
X4306Y28011
X5093Y28011
X5881Y28011
X6668Y28011
X7456Y28011
X8243Y28011
X9030Y28011
X9818Y28011
X10605Y28011
X11393Y28011
X7456Y19349
X8243Y19349
X9030Y19349
X9818Y19349
X10605Y19349
X11393Y19349
X6668Y19349
X5881Y19349
X5093Y19349
X4306Y19349
X31180Y19499
X31180Y20286
X31180Y21074
X31180Y21861
X31180Y25786
X31180Y26574
T03
X5324Y1902
X5324Y6902
X5327Y7702
X5327Y12702
X25680Y8682
X25680Y9682
X25680Y10682
X25680Y11682
X25680Y12682
X26680Y14680
X27680Y14680
X27680Y16180
X26680Y16180
X23180Y17680
X28680Y12682
X28680Y11682
X28680Y10682
X28680Y9682
X28680Y8682
X28680Y7682
X28680Y6682
X28680Y5682
X28680Y4682
X28680Y3682
X31180Y5180
X25680Y3682
X25680Y4682
X25680Y5682
X25680Y6682
X25680Y7682
X31180Y10180
X23180Y22680
X22880Y25480
X22880Y26480
X23880Y25480
T04
X3743Y8310
X3747Y6910
X3747Y5130
X1187Y5130
X1187Y6910
X1183Y8310
X1183Y10090
X3743Y10090
X31180Y14180
X31180Y13180
X31180Y12180
X31180Y15180
X31180Y16180
X31180Y17180
X31180Y29180
T05
X28180Y19180
X28180Y23180
X28180Y24180
X28180Y28180
T06
X11180Y8305
X11180Y14055
X23180Y14055
X23180Y8305
T07
X8072Y30640
X2200Y1740
X31200Y1740
X25330Y30640
M30
